<?xml version="1.0" encoding="UTF-8" standalone="no"?>
<!-- Created with Inkscape (http://www.inkscape.org/) -->

<svg
   xmlns:dc="http://purl.org/dc/elements/1.1/"
   xmlns:cc="http://creativecommons.org/ns#"
   xmlns:rdf="http://www.w3.org/1999/02/22-rdf-syntax-ns#"
   xmlns:svg="http://www.w3.org/2000/svg"
   xmlns="http://www.w3.org/2000/svg"
   xmlns:sodipodi="http://sodipodi.sourceforge.net/DTD/sodipodi-0.dtd"
   xmlns:inkscape="http://www.inkscape.org/namespaces/inkscape"
   width="169.03056mm"
   height="180.37921mm"
   viewBox="0 0 598.92719 639.13894"
   id="svg2"
   version="1.1"
   inkscape:version="0.91 r13725"
   sodipodi:docname="VGO_WithTitle.svg"
   inkscape:export-filename="C:\Users\Michael Bauchert\Desktop\VGO Redesign\VGO_WithTitle.png"
   inkscape:export-xdpi="90"
   inkscape:export-ydpi="90">
  <defs
     id="defs4" />
  <sodipodi:namedview
     id="base"
     pagecolor="#ffffff"
     bordercolor="#666666"
     borderopacity="1.0"
     inkscape:pageopacity="0.0"
     inkscape:pageshadow="2"
     inkscape:zoom="1.2143644"
     inkscape:cx="325.57575"
     inkscape:cy="422.57243"
     inkscape:document-units="px"
     inkscape:current-layer="layer1"
     showgrid="false"
     inkscape:snap-grids="true"
     inkscape:window-width="1600"
     inkscape:window-height="837"
     inkscape:window-x="-8"
     inkscape:window-y="-8"
     inkscape:window-maximized="1"
     fit-margin-top="0"
     fit-margin-left="0"
     fit-margin-right="0"
     fit-margin-bottom="0" />
  <metadata
     id="metadata7">
    <rdf:RDF>
      <cc:Work
         rdf:about="">
        <dc:format>image/svg+xml</dc:format>
        <dc:type
           rdf:resource="http://purl.org/dc/dcmitype/StillImage" />
        <dc:title></dc:title>
      </cc:Work>
    </rdf:RDF>
  </metadata>
  <g
     inkscape:label="Layer 1"
     inkscape:groupmode="layer"
     id="layer1"
     transform="translate(-75,-213.22329)">
    <path
       sodipodi:nodetypes="ccccccccc"
       inkscape:connector-curvature="0"
       id="path5115"
       d="m 75,532.31635 95.71429,-37.45536 236.51785,-185.71429 117.94642,110 140,118.88393 -127.14285,247.45536 -163.66071,50 -207.94643,-82.85715 z"
       style="fill:#fefefe" />
    <path
       inkscape:connector-curvature="0"
       id="path5113"
       d="m 346.5625,852.25464 c -1.71875,-0.12665 -7.58107,-0.5248 -13.02738,-0.88475 -16.92594,-1.1186 -43.01941,-4.72075 -59.16012,-8.1669 -17.04506,-3.63925 -34.38995,-9.59205 -48.60647,-16.68175 l -8.29398,-4.13615 -3.66007,-3.49355 -3.66009,-3.4936 -4.05398,-6.2283 -4.05398,-6.2283 -4.9436,-4.6875 c -7.59606,-7.20255 -16.66823,-14.2928 -27.20237,-21.25965 l -9.58796,-6.34105 -6.78149,-6.3559 c -3.72983,-3.49575 -7.17586,-6.5812 -7.65787,-6.8566 -3.28438,-1.8765 -29.32927,-35.77105 -33.23318,-43.2493 -0.7178,-1.375 -3.17491,-7 -5.46023,-12.5 -2.28533,-5.5 -4.82942,-11.4215 -5.65353,-13.15885 -1.45776,-3.07325 -2.74181,-6.8375 -6.064605,-17.77865 -0.887365,-2.92185 -3.02295,-9.8125 -4.745745,-15.3125 l -3.132355,-10 -0.62044,-4.6875 c -0.34124,-2.5781 -1.03746,-7.0781 -1.547145,-10 -0.50969,-2.92185 -1.117405,-7.28125 -1.35048,-9.6875 -0.233075,-2.40625 -0.79647,-6.2031 -1.251995,-8.4375 -0.45552,-2.23435 -1.14919,-9.2656 -1.541485,-15.625 -0.39229,-6.35935 -0.862625,-11.98435 -1.04518,-12.5 -0.32905,-0.9294 -0.829175,-5.5105 -2.11518,-19.37499 -0.366675,-3.95313 -1.216785,-11.0682 -1.889135,-15.81127 L 75,540.6938 l 0,-7.1077 0,-7.10771 2.16881,-4.26852 2.168815,-4.26852 3.924935,-3.82025 c 2.15872,-2.10115 5.213085,-4.68334 6.78749,-5.73822 3.93247,-2.63481 13.11208,-7.22268 18.38745,-9.18983 2.40625,-0.89728 5.92188,-2.20635 7.8125,-2.90906 1.89063,-0.7027 6.39011,-2.20002 9.99887,-3.32737 l 6.56137,-2.04972 0.79124,-4.29528 c 0.43519,-2.3624 0.95007,-5.5609 1.14417,-7.10777 0.19411,-1.54688 0.51995,-3.23438 0.7241,-3.75 0.20415,-0.51563 0.71657,-2.34375 1.13873,-4.0625 2.08988,-8.50855 5.62848,-19.10315 9.2894,-27.8125 4.38385,-10.42918 17.69925,-36.53414 19.12769,-37.5 0.2542,-0.17188 1.52302,-2.12511 2.81962,-4.34053 1.29659,-2.21542 3.52916,-5.16855 4.96126,-6.5625 1.43211,-1.39396 3.70683,-4.21272 5.05494,-6.2639 1.34811,-2.05118 2.92834,-4.21592 3.51162,-4.81051 0.58328,-0.5946 1.50457,-1.93979 2.0473,-2.98932 0.54274,-1.04954 1.26082,-1.90824 1.59574,-1.90824 0.33493,0 0.60895,-0.42188 0.60895,-0.9375 0,-0.51563 0.27403,-0.9375 0.60895,-0.9375 0.33493,0 1.01797,-0.77344 1.51788,-1.71875 0.49991,-0.94532 1.70245,-2.60057 2.6723,-3.67834 0.96985,-1.07777 2.60712,-3.02374 3.63837,-4.32439 2.24513,-2.83162 5.10418,-6.17329 7.03125,-8.21814 0.77344,-0.82071 1.40625,-1.62941 1.40625,-1.79713 0,-0.1677 0.975,-1.27992 2.16667,-2.47158 1.19166,-1.19167 2.06941,-2.16667 1.95053,-2.16667 -0.81187,0 22.11034,-23.19294 29.64982,-30 2.85553,-2.57813 6.05893,-5.54675 7.11867,-6.59695 1.05975,-1.05019 3.19006,-2.87832 4.73403,-4.0625 1.54397,-1.18418 3.3721,-2.75927 4.0625,-3.50018 1.76458,-1.8937 37.14453,-28.60859 40.04645,-30.2385 1.31349,-0.73774 3.55802,-2.29996 4.98786,-3.47161 1.42984,-1.17164 2.88187,-2.13026 3.22672,-2.13026 0.34485,0 1.92685,-0.99252 3.51556,-2.20559 1.58871,-1.21307 3.01185,-2.12713 3.16252,-2.03125 0.15067,0.0959 1.21157,-0.52879 2.35755,-1.38816 1.14599,-0.85938 2.78674,-1.91643 3.64612,-2.34901 0.85937,-0.43258 2.6875,-1.47736 4.0625,-2.32172 1.375,-0.84437 3.34375,-1.97843 4.375,-2.52014 1.03125,-0.54172 3,-1.65071 4.375,-2.46443 1.375,-0.81373 3.76562,-2.12646 5.3125,-2.91717 1.54687,-0.79072 3.23437,-1.7547 3.75,-2.14217 0.51562,-0.38747 1.92187,-1.07839 3.125,-1.53536 1.20312,-0.45698 2.60937,-1.16011 3.125,-1.5625 0.51562,-0.4024 1.92187,-1.10553 3.125,-1.5625 1.20312,-0.45698 2.6322,-1.20704 3.17572,-1.6668 0.54352,-0.45976 1.13626,-0.68789 1.31718,-0.50696 0.18093,0.18093 0.68473,-0.0997 1.11956,-0.62364 0.43482,-0.52393 1.04314,-0.9526 1.3518,-0.9526 0.30867,0 2.94038,-1.125 5.84824,-2.5 2.90787,-1.375 5.44881,-2.5 5.64655,-2.5 0.19774,0 1.68003,-0.61866 3.29399,-1.37479 1.61395,-0.75614 3.07508,-1.41252 3.24696,-1.45862 0.63741,-0.171 4.1037,-1.58727 5.3125,-2.17061 1.97087,-0.9511 23.97762,-8.73556 25.50297,-9.02118 0.75461,-0.1413 1.44234,-0.31297 1.52828,-0.38148 0.0859,-0.0685 0.4375,-0.19489 0.78125,-0.28082 0.34375,-0.0859 0.69531,-0.21293 0.78125,-0.2822 0.0859,-0.0693 0.57812,-0.21715 1.09375,-0.32863 0.51562,-0.11148 3.11718,-0.79308 5.78125,-1.51468 11.32834,-3.06843 14.0731,-3.76713 16.11936,-4.10333 1.18904,-0.19535 2.86501,-0.49572 3.72439,-0.66747 0.85937,-0.17175 2.26562,-0.44341 3.125,-0.60369 0.85937,-0.16028 2.26562,-0.43194 3.125,-0.6037 0.85937,-0.17175 2.54687,-0.46784 3.75,-0.65797 1.20312,-0.19013 2.60937,-0.46405 3.125,-0.60872 0.51562,-0.14466 3.14112,-0.43657 5.83442,-0.64869 2.69331,-0.21212 5.44651,-0.49152 6.11825,-0.62088 5.71562,-1.10073 24.79284,-1.28948 35.23483,-0.34861 8.55975,0.77127 11.15885,1.21288 22.5,3.82296 1.71875,0.39556 3.47656,0.73995 3.90625,0.76532 0.42969,0.0254 0.78125,0.24919 0.78125,0.4974 0,0.2482 0.94578,0.6287 2.10175,0.84556 3.61475,0.67813 22.46516,10.40892 25.84851,13.34325 0.74765,0.64844 2.6397,1.98827 4.20455,2.97741 1.56485,0.98914 2.8452,2.0236 2.8452,2.2988 0,0.2752 0.2791,0.50037 0.62025,0.50037 0.59875,0 2.73945,1.6358 5.11185,3.90625 0.6286,0.60156 1.1429,0.95312 1.1429,0.78125 0,-0.17188 0.50995,0.17968 1.1332,0.78125 0.6233,0.60156 2.6348,2.35937 4.47,3.90625 3.02195,2.54721 9.97095,9.41351 16.60385,16.40626 1.3857,1.46093 3.8445,4.3899 5.46395,6.50881 1.61945,2.11892 3.1886,3.94705 3.487,4.0625 0.75295,0.29136 16.967,21.77981 16.967,22.48637 0,0.31506 1.125,1.99606 2.5,3.73557 1.375,1.7395 2.5,3.44857 2.5,3.79792 0,0.34936 0.84375,1.70051 1.875,3.00257 1.03125,1.30205 1.875,2.65689 1.875,3.01074 0,0.35384 0.64375,1.43837 1.4306,2.41005 0.7868,0.97169 1.77815,2.46983 2.20305,3.32921 0.42485,0.85937 2.1589,4.09375 3.8534,7.1875 3.0608,5.58818 4.89305,9.29159 5.03035,10.16759 0.0395,0.25158 0.42634,0.87928 0.85985,1.39491 0.4335,0.51562 1.22755,1.92187 1.7645,3.125 0.537,1.20312 1.62465,3.59375 2.41705,5.3125 0.79245,1.71875 1.472,3.26562 1.5102,3.4375 0.038,0.17187 0.54455,1.40154 1.1252,2.73257 0.5807,1.33105 1.0558,2.54179 1.0558,2.69055 0,0.14875 0.52105,1.45034 1.1579,2.89242 1.2164,2.75451 1.7204,4.08457 1.94065,5.12196 0.073,0.34375 0.4245,0.97656 0.7811,1.40625 0.35665,0.42968 0.4389,0.78125 0.18285,0.78125 -0.25605,0 -0.11545,0.42187 0.3125,0.9375 0.42795,0.51562 0.56855,0.9375 0.3125,0.9375 -0.25605,0 -0.18365,0.35156 0.16095,0.78125 0.761,0.94903 7.9251,22.66048 8.91945,27.03125 0.76745,3.37357 0.9004,4.01165 1.82275,8.75 1.03155,5.29909 1.43115,10.26042 1.5856,19.6875 l 0.14855,9.0625 -1.1399,7.5 c -2.31675,15.24343 -5.98475,25.52114 -13.26495,37.16825 -1.40325,2.24497 -2.7195,4.22237 -2.92495,4.39425 -0.20545,0.17187 -1.20245,1.4317 -2.21555,2.7996 -1.01305,1.36792 -3.73695,4.40151 -6.053,6.74132 l -4.21105,4.25422 0.77355,0.26764 c 13.38555,4.63132 21.0163,8.08224 30.50755,13.79673 l 3.484,2.09765 5.4692,5.67342 5.46915,5.67342 1.6041,3.50374 1.60405,3.50375 -0.4002,7.2505 c -0.2201,3.98778 -0.683,12.73488 -1.0286,19.43801 -1.2783,24.79119 -3.20125,51.71659 -4.06195,56.87499 -0.4875,2.9219 -1.4542,8.5469 -2.1482,12.5 -0.694,3.95315 -1.7124,9.8594 -2.2631,13.125 -3.1457,18.653 -3.89305,21.5235 -9.1939,35.3125 -5.30795,13.8075 -7.87225,19.6682 -14.6302,33.4375 l -7.20865,14.6875 -4.15235,5.2061 c -2.2838,2.86335 -7.27905,9.1043 -11.1006,13.8688 l -6.94825,8.66265 -11.85015,11.2735 c -6.5176,6.2004 -12.81275,11.92775 -13.98925,12.72745 -2.32655,1.5814 -8.48565,6.1965 -16.8266,12.6084 -2.9219,2.2461 -7.6423,5.50855 -10.48985,7.24985 -2.84755,1.7413 -6.14645,4.01685 -7.3309,5.05685 l -2.15355,1.89085 -2.00375,4.16525 c -1.10205,2.29095 -3.0706,5.99345 -4.37455,8.2278 l -2.37075,4.0625 -2.9821,2.55505 c -3.54915,3.04095 -12.3203,8.6192 -16.35382,10.4007 -17.96744,7.93565 -47.6317,15.67245 -73.68698,19.2183 -2.30519,0.31375 -7.28501,0.9939 -11.06626,1.5114 -3.78125,0.51755 -11.79687,1.3985 -17.8125,1.95755 l -10.9375,1.01655 -28.4375,0.1921 c -15.64062,0.1056 -29.84375,0.0883 -31.5625,-0.038 z m 78.75,-273.2709 c 15.98382,-0.63085 37.37206,-1.80175 41.875,-2.29245 1.71875,-0.1873 8.46875,-0.73693 15,-1.22141 15.9508,-1.18323 31.60424,-2.64899 36.5625,-3.42366 2.23437,-0.3491 6.59375,-0.93598 9.6875,-1.30419 3.09375,-0.36821 8.15626,-1.07965 11.25001,-1.58098 3.09375,-0.50133 8.8128,-1.32796 12.70895,-1.83696 3.8962,-0.50899 8.11495,-1.1923 9.375,-1.51847 1.2601,-0.32617 3.97855,-0.78849 6.04105,-1.02739 2.0625,-0.2389 6.7031,-1.10824 10.3125,-1.93188 3.60935,-0.82364 8.3906,-1.89703 10.625,-2.38531 15.8822,-3.47076 39.7105,-10.47661 41.4726,-12.19353 l 0.5351,-0.52139 -8.9726,-2.87358 c -16.1767,-5.1808 -36.2463,-9.56451 -68.73025,-15.01247 -7.0855,-1.18832 -15.94485,-2.47762 -19.6875,-2.8651 -3.7427,-0.38749 -12.99236,-1.3803 -20.55486,-2.20626 -32.59114,-3.55952 -51.97966,-5.01646 -74.6875,-5.61233 l -14.6875,-0.38541 -4.91969,3.79394 c -2.70582,2.08666 -5.18812,3.79394 -5.51622,3.79394 -0.32809,0 -2.24131,1.26562 -4.25159,2.8125 -2.01028,1.54687 -3.91809,2.8125 -4.23957,2.8125 -0.32148,0 -1.81941,0.98164 -3.32872,2.18143 -1.50931,1.19979 -3.02546,2.19199 -3.36921,2.20489 -0.34375,0.0129 -1.72978,0.85938 -3.08008,1.88107 -1.3503,1.02168 -2.75655,1.86696 -3.125,1.8784 -0.36845,0.0114 -1.29931,0.54593 -2.06856,1.18777 l -1.39863,1.16697 1.26153,2.71849 c 0.69384,1.49516 1.53719,3.14035 1.87412,3.65598 0.56132,0.85903 2.62779,5.51767 2.77237,6.25 0.034,0.17187 0.59866,1.41652 1.25496,2.76588 l 1.19327,2.45337 -3.65403,3.32071 -3.65404,3.3207 -6.31295,3.11321 c -6.66535,3.28699 -13.70635,5.80742 -23.50046,8.41232 l -5.9375,1.5792 29.0625,-0.2839 c 15.98438,-0.15615 35.25,-0.5281 42.8125,-0.8266 z M 143.75,556.71479 c 0,-0.31096 -2.26719,-6.51933 -3.31803,-9.08594 -0.75154,-1.83558 -1.00312,-2.65002 -1.11012,-3.59375 -0.0293,-0.25782 -0.325,-0.79632 -0.65726,-1.19667 l -0.60411,-0.7279 -4.15179,1.1873 c -2.28348,0.65302 -6.93273,2.09242 -10.33168,3.19869 l -6.17989,2.01137 1.01109,0.73933 c 0.5561,0.40663 4.3058,1.79412 8.33269,3.08332 4.02688,1.28921 8.86847,2.84589 10.7591,3.45931 3.3366,1.08258 6.25,1.51373 6.25,0.92494 z"
       style="fill:#878787" />
    <path
       inkscape:connector-curvature="0"
       id="path5111"
       d="m 346.5625,852.25464 c -1.71875,-0.12665 -7.58107,-0.5248 -13.02738,-0.88475 -16.92594,-1.1186 -43.01941,-4.72075 -59.16012,-8.1669 -17.04506,-3.63925 -34.38995,-9.59205 -48.60647,-16.68175 l -8.29398,-4.13615 -3.66007,-3.49355 -3.66009,-3.4936 -4.05398,-6.2283 -4.05398,-6.2283 -4.9436,-4.6875 c -7.59606,-7.20255 -16.66823,-14.2928 -27.20237,-21.25965 l -9.58796,-6.34105 -6.78149,-6.3559 c -3.72983,-3.49575 -7.17586,-6.5812 -7.65787,-6.8566 -3.28438,-1.8765 -29.32927,-35.77105 -33.23318,-43.2493 -0.7178,-1.375 -3.17491,-7 -5.46023,-12.5 -2.28533,-5.5 -4.82942,-11.4215 -5.65353,-13.15885 -1.45776,-3.07325 -2.74181,-6.8375 -6.064605,-17.77865 -0.887365,-2.92185 -3.02295,-9.8125 -4.745745,-15.3125 l -3.132355,-10 -0.62044,-4.6875 c -0.34124,-2.5781 -1.03746,-7.0781 -1.547145,-10 -0.50969,-2.92185 -1.117405,-7.28125 -1.35048,-9.6875 -0.233075,-2.40625 -0.79647,-6.2031 -1.251995,-8.4375 -0.45552,-2.23435 -1.14919,-9.2656 -1.541485,-15.625 -0.39229,-6.35935 -0.862625,-11.98435 -1.04518,-12.5 -0.32905,-0.9294 -0.829175,-5.5105 -2.11518,-19.37499 -0.366675,-3.95313 -1.216785,-11.0682 -1.889135,-15.81127 L 75,540.6938 l 0,-7.1077 0,-7.10771 2.16881,-4.26852 2.168815,-4.26852 3.924935,-3.82025 c 2.15872,-2.10115 5.213085,-4.68334 6.78749,-5.73822 3.93247,-2.63481 13.11208,-7.22268 18.38745,-9.18983 2.40625,-0.89728 5.92188,-2.20635 7.8125,-2.90906 1.89063,-0.7027 6.39063,-2.19811 10,-3.32313 l 6.5625,-2.04549 0.81562,-4.29951 c 1.98025,-10.43871 2.88565,-14.57494 4.08776,-18.67451 1.44791,-4.93782 4.71639,-14.87693 5.34382,-16.25 0.31416,-0.6875 1.49524,-3.64063 2.62463,-6.5625 2.33464,-6.04001 12.23747,-26.97661 12.99804,-27.48049 0.27563,-0.18261 1.91145,-2.86326 3.63517,-5.95701 1.72371,-3.09375 4.22773,-7.49372 5.56449,-9.77771 l 2.43047,-4.1527 1.62628,-1.10274 c 0.89446,-0.60651 2.44134,-2.31755 3.4375,-3.80231 0.99617,-1.48476 2.02215,-2.70574 2.27997,-2.71331 0.25781,-0.008 0.46875,-0.41217 0.46875,-0.89915 0,-0.48698 0.22731,-0.97916 0.50513,-1.09375 0.27783,-0.11458 1.45458,-1.61458 2.615,-3.33333 1.16043,-1.71875 2.27066,-3.26563 2.46718,-3.4375 0.19651,-0.17188 1.18459,-1.4375 2.19571,-2.8125 1.01112,-1.375 2.00838,-2.64063 2.21612,-2.8125 0.20775,-0.17188 1.32498,-1.64844 2.48274,-3.28125 1.15777,-1.63282 2.38547,-2.96875 2.72824,-2.96875 0.34276,0 0.45915,-0.16407 0.25863,-0.36458 -0.20052,-0.20053 0.10417,-0.84898 0.67708,-1.44102 0.57292,-0.59205 2.16667,-2.42357 3.54167,-4.07006 1.375,-1.6465 3.0625,-3.63302 3.75,-4.41449 0.6875,-0.78147 2.51563,-2.89363 4.0625,-4.69367 1.54688,-1.80005 5.27344,-5.80001 8.28125,-8.88881 3.00782,-3.0888 5.46875,-5.70528 5.46875,-5.8144 0,-0.39319 6.87513,-6.9907 23.12163,-22.18797 0.9187,-0.85938 3.05311,-2.66875 4.74312,-4.02083 1.69001,-1.35207 3.63525,-3.07554 4.32275,-3.82992 1.59586,-1.75111 40.09131,-30.89925 40.80811,-30.89925 0.29511,0 2.20276,-1.25813 4.23922,-2.79585 2.03647,-1.53772 3.94344,-2.80334 4.23773,-2.8125 0.29428,-0.009 1.55991,-0.80244 2.8125,-1.76286 1.25259,-0.96041 2.98056,-2.1042 3.83994,-2.54176 2.91919,-1.48633 5.30758,-2.8986 7.28398,-4.30707 1.08431,-0.77273 2.15777,-1.40496 2.38545,-1.40496 0.22769,0 1.30927,-0.66104 2.40352,-1.46898 1.09425,-0.80793 3.25517,-2.10759 4.80205,-2.88812 4.64422,-2.3434 6.80905,-3.56011 7.80507,-4.38673 0.5197,-0.43133 0.94493,-0.59001 0.94493,-0.35264 0,0.23737 0.77344,-0.10348 1.71875,-0.75746 1.8836,-1.30308 15.71392,-8.15325 16.71875,-8.28081 0.34375,-0.0437 1.04687,-0.43842 1.5625,-0.8773 0.78194,-0.66555 2.1091,-1.34789 3.75,-1.92798 0.74937,-0.26492 5.49952,-2.35122 7.5,-3.29406 1.20312,-0.56704 2.32812,-1.05875 2.5,-1.09268 0.17187,-0.034 1.29687,-0.4924 2.5,-1.01882 1.20312,-0.52642 3.3125,-1.31942 4.6875,-1.76223 1.375,-0.4428 2.78125,-1.01304 3.125,-1.26719 0.34375,-0.25416 1.75,-0.81666 3.125,-1.25 1.375,-0.43335 2.78125,-1.00417 3.125,-1.26848 1.33379,-1.02558 29.7384,-9.75442 30.45834,-9.35996 0.0917,0.0502 1.01041,-0.23469 2.04166,-0.63313 1.03125,-0.39844 2.29687,-0.81672 2.8125,-0.92952 0.51562,-0.1128 2.20312,-0.49421 3.75,-0.84758 1.54687,-0.35337 3.79687,-0.80344 5,-1.00017 1.20312,-0.19673 2.89062,-0.49822 3.75,-0.66997 1.68193,-0.33615 2.53544,-0.49435 6.875,-1.27432 1.54687,-0.27803 2.95312,-0.54316 3.125,-0.58918 0.57072,-0.1528 5.90395,-0.96489 8.125,-1.23719 16.65307,-2.04168 44.39218,-1.57229 54.375,0.92011 1.20312,0.30038 3.875,0.89525 5.9375,1.32193 5.90975,1.22258 14.15636,4.03584 19.159,6.53594 5.60415,2.80067 12.01611,6.59746 12.30065,7.2837 0.11531,0.27808 0.46686,0.34663 0.78125,0.15233 l 0.5716,-0.35328 0,0.69877 0,0.69877 0.625,-0.38627 c 0.34375,-0.21245 0.62645,-0.15874 0.6282,0.11936 0,0.2781 1.5472,1.49001 3.4343,2.69314 1.88706,1.20312 3.4325,2.39843 3.43425,2.65625 0,0.25781 0.42511,0.46875 0.94075,0.46875 0.5156,0 0.9394,0.21093 0.94175,0.46875 0,0.25781 0.97925,1.13269 2.1709,1.94417 1.1916,0.81148 2.84735,2.0771 3.67935,2.8125 0.832,0.73539 2.73385,2.32145 4.2263,3.52458 4.5912,3.70111 20.0881,19.44013 23.6924,24.0625 1.87625,2.40625 3.6246,4.46928 3.88515,4.58452 0.76795,0.33963 15.89415,20.33836 17.3686,22.96344 0.74285,1.32261 2.1657,3.39354 3.16185,4.60205 0.99615,1.20851 1.8112,2.45822 1.8112,2.77714 0,0.31892 0.7028,1.50125 1.56175,2.62739 0.85895,1.12615 1.85775,2.69957 2.21965,3.4965 0.36185,0.79693 1.34455,2.57396 2.18375,3.94896 0.83925,1.375 1.9455,3.39483 2.4584,4.48851 0.5129,1.09368 1.2223,2.1676 1.57645,2.38649 0.57055,0.35261 2.32825,3.96075 2.5174,5.16759 0.0395,0.25158 0.4056,0.87928 0.81375,1.39491 0.40815,0.51562 1.28825,2.0625 1.95575,3.4375 0.66755,1.375 1.62275,2.99218 2.12275,3.59375 0.5,0.60156 0.71585,1.09375 0.47965,1.09375 -0.2362,0 0.2771,1.26562 1.14075,2.8125 0.8636,1.54687 1.39155,2.8125 1.1732,2.8125 -0.21835,0 0.035,0.49218 0.56345,1.09375 0.52825,0.60156 1.16785,1.77237 1.4213,2.60181 0.25345,0.82943 0.90245,2.51693 1.4422,3.75 0.53975,1.23306 1.0126,2.38256 1.0508,2.55444 0.038,0.17187 0.68805,1.633 1.4442,3.24696 0.75615,1.61395 1.3748,3.07221 1.3748,3.24056 0,0.16836 0.328,1.09785 0.7289,2.06554 0.40085,0.96769 0.7876,1.97037 0.85935,2.22819 0.0717,0.25781 0.2008,0.60937 0.28675,0.78125 0.086,0.17187 0.22655,0.59375 0.3125,0.9375 0.086,0.34375 0.22655,0.76562 0.3125,0.9375 0.086,0.17187 0.22655,0.59375 0.3125,0.9375 0.086,0.34375 0.22655,0.76562 0.3125,0.9375 0.086,0.17187 0.22655,0.59375 0.3125,0.9375 0.086,0.34375 0.22655,0.76562 0.3125,0.9375 0.086,0.17187 0.22655,0.59375 0.3125,0.9375 0.086,0.34375 0.22655,0.76562 0.3125,0.9375 0.086,0.17187 0.22655,0.59375 0.3125,0.9375 0.086,0.34375 0.22655,0.76562 0.3125,0.9375 0.086,0.17187 0.22655,0.59375 0.3125,0.9375 0.086,0.34375 0.22655,0.76562 0.3125,0.9375 0.086,0.17187 0.22655,0.59375 0.3125,0.9375 0.086,0.34375 0.22655,0.76562 0.3125,0.9375 0.086,0.17187 0.22655,0.59375 0.3125,0.9375 0.086,0.34375 0.22655,0.76562 0.3125,0.9375 0.086,0.17187 0.22655,0.59375 0.3125,0.9375 0.086,0.34375 0.22655,0.76562 0.3125,0.9375 0.086,0.17187 0.22655,0.59375 0.3125,0.9375 0.086,0.34375 0.22655,0.76562 0.3125,0.9375 0.086,0.17187 0.22655,0.59375 0.3125,0.9375 0.086,0.34375 0.22655,0.76562 0.3125,0.9375 0.086,0.17187 0.22655,0.59375 0.3125,0.9375 0.086,0.34375 0.2129,0.69531 0.2822,0.78125 0.0693,0.0859 0.21615,0.57812 0.3264,1.09375 0.11025,0.51562 0.7904,3.1645 1.5114,5.88639 0.721,2.72188 1.4832,6.2375 1.6938,7.8125 0.2106,1.57498 0.46875,3.0079 0.57365,3.18426 0.4663,0.7838 1.11235,10.35203 1.1811,17.49185 l 0.0752,7.8125 -1.0752,6.875 c -1.3158,8.41361 -1.8709,11.01294 -3.80405,17.8125 l -1.51035,5.3125 -3.582,7.34375 c -1.97005,4.03906 -3.8413,7.34375 -4.1583,7.34375 -0.317,0 -0.57635,0.39843 -0.57635,0.88542 0,0.48697 -0.2473,0.97916 -0.5495,1.09375 -0.30225,0.11458 -1.08655,1.0991 -1.74295,2.18782 -1.5741,2.61078 -5.3566,7.09259 -9.48,11.23262 l -3.33495,3.3484 0.83495,0.29121 c 13.8416,4.82752 21.0322,8.07842 30.56895,13.82029 l 3.484,2.09765 5.4692,5.67342 5.46915,5.67342 1.6041,3.50374 1.60405,3.50375 -0.4002,7.2505 c -0.2201,3.98778 -0.683,12.73488 -1.0286,19.43801 -1.2783,24.79119 -3.20125,51.71659 -4.06195,56.87499 -0.4875,2.9219 -1.4542,8.5469 -2.1482,12.5 -0.694,3.95315 -1.7124,9.8594 -2.2631,13.125 -3.1457,18.653 -3.89305,21.5235 -9.1939,35.3125 -5.30795,13.8075 -7.87225,19.6682 -14.6302,33.4375 l -7.20865,14.6875 -4.15235,5.2061 c -2.2838,2.86335 -7.27905,9.1043 -11.1006,13.8688 l -6.94825,8.66265 -11.85015,11.2735 c -6.5176,6.2004 -12.81275,11.92775 -13.98925,12.72745 -2.32655,1.5814 -8.48565,6.1965 -16.8266,12.6084 -2.9219,2.2461 -7.6423,5.50855 -10.48985,7.24985 -2.84755,1.7413 -6.14645,4.01685 -7.3309,5.05685 l -2.15355,1.89085 -2.00375,4.16525 c -1.10205,2.29095 -3.0706,5.99345 -4.37455,8.2278 l -2.37075,4.0625 -2.9821,2.55505 c -3.54915,3.04095 -12.3203,8.6192 -16.35381,10.4007 -17.96744,7.93565 -47.63171,15.67245 -73.68699,19.2183 -2.30518,0.31375 -7.285,0.9939 -11.06625,1.5114 -3.78125,0.51755 -11.79688,1.3985 -17.8125,1.95755 l -10.9375,1.01655 -28.4375,0.1921 c -15.64063,0.1056 -29.84375,0.0883 -31.5625,-0.038 z M 425.625,578.97879 c 15.89983,-0.6378 37.16232,-1.808 41.5625,-2.2875 1.71875,-0.1873 8.46875,-0.73693 15,-1.22141 15.3107,-1.13574 31.32641,-2.62706 36.875,-3.43364 2.40625,-0.3498 6.625,-0.91631 9.375,-1.25892 2.75,-0.3426 7.67186,-1.05224 10.93751,-1.57697 3.2656,-0.52473 9.1253,-1.36977 13.02145,-1.87788 3.8962,-0.5081 8.11495,-1.19068 9.375,-1.51685 1.2601,-0.32617 3.97855,-0.78849 6.04105,-1.02739 2.0625,-0.2389 6.7031,-1.10824 10.3125,-1.93188 3.60935,-0.82364 8.3906,-1.89703 10.625,-2.38531 15.8822,-3.47076 39.7105,-10.47661 41.4726,-12.19353 l 0.5351,-0.52139 -8.9726,-2.87358 c -19.89415,-6.37135 -63.1554,-15.06257 -90.22261,-18.1258 -42.38353,-4.79659 -68.76865,-6.94308 -93.25748,-7.58669 l -15.13248,-0.39772 -4.92282,3.80826 c -2.70756,2.09455 -5.17919,3.81575 -5.49252,3.82491 -0.31334,0.009 -2.2359,1.27479 -4.27236,2.8125 -2.03647,1.53772 -3.97624,2.79585 -4.31063,2.79585 -0.33438,0 -1.83225,1.0032 -3.32859,2.22934 -1.49634,1.22614 -2.72062,2.04556 -2.72062,1.82093 0,-0.22462 -1.1804,0.45967 -2.62312,1.52066 -1.44272,1.06099 -2.91928,1.93918 -3.28125,1.95154 -0.36197,0.0124 -1.41737,0.64518 -2.34534,1.40625 l -1.68721,1.38378 0.1521,1.0307 c 0.0837,0.56688 0.44794,1.41063 0.80952,1.875 0.59921,0.76957 4.80012,9.17269 4.95263,9.9068 0.10234,0.49265 1.52812,3.87818 1.85812,4.41212 0.16385,0.26512 -0.44514,1.3651 -1.3533,2.44439 l -1.65121,1.96235 -0.88543,-0.33978 -0.88543,-0.33976 0.37483,0.60649 0.37484,0.60649 -3.5747,2.28671 c -6.56511,4.19965 -16.78748,8.20978 -29.29755,11.49313 l -6.875,1.8044 30,-0.2738 c 16.5,-0.1506 36.04688,-0.51635 43.4375,-0.8128 z M 143.88924,555.59665 c -1.10722,-2.23565 -3.26424,-7.24477 -3.26424,-7.58033 0,-0.16835 -0.30102,-1.09785 -0.66894,-2.06554 -0.36791,-0.96769 -0.67308,-1.90006 -0.67815,-2.07193 -0.005,-0.17188 -0.28106,-0.64007 -0.61332,-1.04042 l -0.60411,-0.7279 -3.87399,1.11208 C 125.49058,545.7189 117.5,548.4041 117.5,548.83004 c 0,0.46877 11.28897,4.43685 17.44024,6.13025 1.92349,0.52952 4.76288,1.31285 6.30976,1.74073 1.54687,0.42788 2.93011,0.67064 3.07385,0.53946 0.14375,-0.13118 -0.0518,-0.87091 -0.43461,-1.64383 z m 525.41327,-23.20058 -0.0725,-1.32972 -0.30725,1.25 c -0.169,0.6875 -0.62855,1.67187 -1.02125,2.1875 l -0.714,0.9375 1.09375,-0.85778 1.09375,-0.85778 -0.0725,-1.32972 z M 404.42752,398.32016 c -1.06014,-1.33853 -1.92752,-2.69102 -1.92752,-3.00554 0,-0.31453 -0.42645,-1.1178 -0.94766,-1.78507 l -0.94765,-1.2132 0.76395,1.875 c 0.77174,1.89411 4.09663,6.5625 4.6739,6.5625 0.17187,0 -0.55488,-1.09517 -1.61502,-2.43369 z m 37.87856,0.78144 c -0.30951,-0.30951 -3.55608,0.86983 -3.55608,1.29177 0,0.1625 0.85811,-0.004 1.9069,-0.3693 1.0488,-0.36561 1.79093,-0.78072 1.64918,-0.92247 z M 453.125,363.05889 c 0,-0.10724 -0.91407,-0.83088 -2.03125,-1.60811 l -2.03125,-1.41313 1.7536,1.6081 c 1.61757,1.48336 2.3089,1.90647 2.3089,1.41314 z m 10.57015,-9.49254 c -1.42743,-1.89063 -2.7366,-3.4375 -2.90927,-3.4375 -0.17266,0 -0.0504,0.35156 0.27174,0.78125 2.78153,3.71035 4.71862,6.09375 4.95264,6.09375 0.15414,0 -0.88767,-1.54688 -2.31511,-3.4375 z"
       style="fill:#778487" />
    <path
       sodipodi:nodetypes="cssscccccsscscsscsscssssscsscccccssssscsssscsscsscscsssssscssssssssssscssssssssscssscssssscssssssssssscccccscccsccsssccsssccsccscsscscsscsscssssssssssssssssssssssssscssscscsscssscsscsscccccsscsssscsscsssscccccssccscsccssssssscsssscsssssscscssssscsccssssccccsscsscsccccsssscccccscccccscscsssssccscccsscssccccccccssscssssscssscsscscsccsscss"
       inkscape:connector-curvature="0"
       id="path5109"
       d="m 346.5625,852.25464 c -1.71875,-0.12665 -7.58107,-0.5248 -13.02738,-0.88475 -16.92594,-1.1186 -43.01941,-4.72075 -59.16012,-8.1669 -17.04506,-3.63925 -34.38995,-9.59205 -48.60647,-16.68175 l -8.29398,-4.13615 -3.66007,-3.49355 -3.66009,-3.4936 -4.05398,-6.2283 -4.05398,-6.2283 -4.9436,-4.6875 c -7.59606,-7.20255 -16.66823,-14.2928 -27.20237,-21.25965 l -9.58796,-6.34105 -6.78149,-6.3559 c -3.72983,-3.49575 -7.17586,-6.5812 -7.65787,-6.8566 -3.28438,-1.8765 -29.32927,-35.77105 -33.23318,-43.2493 -0.7178,-1.375 -3.17491,-7 -5.46023,-12.5 -2.28533,-5.5 -4.82942,-11.4215 -5.65353,-13.15885 -1.45776,-3.07325 -2.74181,-6.8375 -6.064605,-17.77865 -0.887365,-2.92185 -3.02295,-9.8125 -4.745745,-15.3125 l -3.132355,-10 -0.62044,-4.6875 c -0.34124,-2.5781 -1.03746,-7.0781 -1.547145,-10 -0.50969,-2.92185 -1.117405,-7.28125 -1.35048,-9.6875 -0.233075,-2.40625 -0.79647,-6.2031 -1.251995,-8.4375 -0.45552,-2.23435 -1.14919,-9.2656 -1.541485,-15.625 -0.39229,-6.35935 -0.862625,-11.98435 -1.04518,-12.5 -0.32905,-0.9294 -0.829175,-5.5105 -2.11518,-19.37499 -0.366675,-3.95313 -1.216785,-11.0682 -1.889135,-15.81127 L 75,540.6938 l 0,-7.1077 0,-7.10771 2.16881,-4.26852 2.168815,-4.26852 3.924935,-3.82025 c 2.15872,-2.10115 5.213085,-4.68334 6.78749,-5.73822 3.93247,-2.63481 13.11208,-7.22268 18.38745,-9.18983 2.40625,-0.89728 5.92188,-2.20635 7.8125,-2.90906 1.89063,-0.7027 6.39063,-2.19811 10,-3.32313 l 6.5625,-2.04549 0.81562,-4.29951 c 1.98025,-10.43871 2.88565,-14.57494 4.08776,-18.67451 1.44791,-4.93782 4.71639,-14.87693 5.34382,-16.25 0.31416,-0.6875 1.49524,-3.64063 2.62463,-6.5625 2.33464,-6.04001 12.23747,-26.97661 12.99804,-27.48049 0.27563,-0.18261 1.91145,-2.86326 3.63517,-5.95701 1.72371,-3.09375 4.22773,-7.49372 5.56449,-9.77771 l 2.43047,-4.1527 1.62628,-1.10274 c 0.89446,-0.60651 2.44134,-2.31755 3.4375,-3.80231 0.99617,-1.48476 2.02215,-2.70574 2.27997,-2.71331 0.25781,-0.008 0.46875,-0.41217 0.46875,-0.89915 0,-0.48698 0.22731,-0.97916 0.50513,-1.09375 0.27783,-0.11458 1.45458,-1.61458 2.615,-3.33333 1.16043,-1.71875 2.27066,-3.26563 2.46718,-3.4375 0.19651,-0.17188 1.18459,-1.4375 2.19571,-2.8125 1.01112,-1.375 2.00838,-2.64063 2.21612,-2.8125 0.20775,-0.17188 1.32498,-1.64844 2.48274,-3.28125 1.15777,-1.63282 2.38547,-2.96875 2.72824,-2.96875 0.34276,0 0.45915,-0.16407 0.25863,-0.36458 -0.20052,-0.20053 0.10417,-0.84898 0.67708,-1.44102 0.57292,-0.59205 2.16667,-2.42357 3.54167,-4.07006 1.375,-1.6465 3.0625,-3.63302 3.75,-4.41449 0.6875,-0.78147 2.51563,-2.89363 4.0625,-4.69367 1.54688,-1.80005 5.27344,-5.80001 8.28125,-8.88881 3.00782,-3.0888 5.46875,-5.70528 5.46875,-5.8144 0,-0.39319 6.87513,-6.9907 23.12163,-22.18797 0.9187,-0.85938 3.05311,-2.66875 4.74312,-4.02083 1.69001,-1.35207 3.63525,-3.07554 4.32275,-3.82992 1.59586,-1.75111 40.09131,-30.89925 40.80811,-30.89925 0.29511,0 2.20276,-1.25813 4.23922,-2.79585 2.03647,-1.53772 3.94344,-2.80334 4.23773,-2.8125 0.29428,-0.009 1.55991,-0.80244 2.8125,-1.76286 1.25259,-0.96041 2.98056,-2.1042 3.83994,-2.54176 2.91919,-1.48633 5.30758,-2.8986 7.28398,-4.30707 1.08431,-0.77273 2.15777,-1.40496 2.38545,-1.40496 0.22769,0 1.30927,-0.66104 2.40352,-1.46898 1.09425,-0.80793 3.25517,-2.10759 4.80205,-2.88812 4.64422,-2.3434 6.80905,-3.56011 7.80507,-4.38673 0.5197,-0.43133 0.94493,-0.59001 0.94493,-0.35264 0,0.23737 0.77344,-0.10348 1.71875,-0.75746 1.8836,-1.30308 15.71392,-8.15325 16.71875,-8.28081 0.34375,-0.0437 1.04687,-0.43842 1.5625,-0.8773 0.78194,-0.66555 2.1091,-1.34789 3.75,-1.92798 0.74937,-0.26492 5.49952,-2.35122 7.5,-3.29406 1.20312,-0.56704 2.32812,-1.05875 2.5,-1.09268 0.17187,-0.034 1.29687,-0.4924 2.5,-1.01882 1.20312,-0.52642 3.3125,-1.31942 4.6875,-1.76223 1.375,-0.4428 2.78125,-1.01304 3.125,-1.26719 0.34375,-0.25416 1.75,-0.81666 3.125,-1.25 1.375,-0.43335 2.78125,-1.00417 3.125,-1.26848 1.33379,-1.02558 29.7384,-9.75442 30.45834,-9.35996 0.0917,0.0502 1.01041,-0.23469 2.04166,-0.63313 1.03125,-0.39844 2.29687,-0.81672 2.8125,-0.92952 0.51562,-0.1128 2.20312,-0.49421 3.75,-0.84758 1.54687,-0.35337 3.79687,-0.80344 5,-1.00017 1.20312,-0.19673 2.89062,-0.49822 3.75,-0.66997 1.68193,-0.33615 2.53544,-0.49435 6.875,-1.27432 1.54687,-0.27803 2.95312,-0.54316 3.125,-0.58918 0.57072,-0.1528 5.90395,-0.96489 8.125,-1.23719 16.65307,-2.04168 44.39218,-1.57229 54.375,0.92011 1.20312,0.30038 3.875,0.89525 5.9375,1.32193 5.90975,1.22258 14.15636,4.03584 19.159,6.53594 5.60415,2.80067 12.01611,6.59746 12.30065,7.2837 0.11531,0.27808 0.46686,0.34663 0.78125,0.15233 l 0.5716,-0.35328 0,0.69877 0,0.69877 0.625,-0.38627 c 0.34375,-0.21245 0.62645,-0.15874 0.6282,0.11936 0,0.2781 1.5472,1.49001 3.4343,2.69314 1.88706,1.20312 3.4325,2.39843 3.43425,2.65625 0,0.25781 0.42511,0.46875 0.94075,0.46875 0.5156,0 0.9394,0.21093 0.94175,0.46875 0,0.25781 0.97925,1.13269 2.1709,1.94417 1.1916,0.81148 2.84735,2.0771 3.67935,2.8125 0.832,0.73539 2.73385,2.32145 4.2263,3.52458 4.5912,3.70111 20.0881,19.44013 23.6924,24.0625 1.87625,2.40625 3.6246,4.46928 3.88515,4.58452 0.76795,0.33963 15.89415,20.33836 17.3686,22.96344 0.74285,1.32261 2.1657,3.39354 3.16185,4.60205 0.99615,1.20851 1.8112,2.45822 1.8112,2.77714 0,0.31892 0.7028,1.50125 1.56175,2.62739 0.85895,1.12615 1.85775,2.69957 2.21965,3.4965 0.36185,0.79693 1.34455,2.57396 2.18375,3.94896 0.83925,1.375 1.9455,3.39483 2.4584,4.48851 0.5129,1.09368 1.2223,2.1676 1.57645,2.38649 0.57055,0.35261 2.32825,3.96075 2.5174,5.16759 0.0395,0.25158 0.4056,0.87928 0.81375,1.39491 0.40815,0.51562 1.28825,2.0625 1.95575,3.4375 0.66755,1.375 1.62275,2.99218 2.12275,3.59375 0.5,0.60156 0.71585,1.09375 0.47965,1.09375 -0.2362,0 0.2771,1.26562 1.14075,2.8125 0.8636,1.54687 1.39155,2.8125 1.1732,2.8125 -0.21835,0 0.035,0.49218 0.56345,1.09375 0.52825,0.60156 1.16785,1.77237 1.4213,2.60181 0.25345,0.82943 0.90245,2.51693 1.4422,3.75 0.53975,1.23306 1.0126,2.38256 1.0508,2.55444 0.038,0.17187 0.68805,1.633 1.4442,3.24696 0.75615,1.61395 1.3748,3.07221 1.3748,3.24056 0,0.16836 0.328,1.09785 0.7289,2.06554 0.40085,0.96769 0.7876,1.97037 0.85935,2.22819 0.0717,0.25781 0.2008,0.60937 0.28675,0.78125 0.086,0.17187 0.22655,0.59375 0.3125,0.9375 0.086,0.34375 0.22655,0.76562 0.3125,0.9375 0.086,0.17187 0.22655,0.59375 0.3125,0.9375 0.086,0.34375 0.22655,0.76562 0.3125,0.9375 0.086,0.17187 0.22655,0.59375 0.3125,0.9375 0.086,0.34375 0.22655,0.76562 0.3125,0.9375 0.086,0.17187 0.22655,0.59375 0.3125,0.9375 0.086,0.34375 0.22655,0.76562 0.3125,0.9375 0.086,0.17187 0.22655,0.59375 0.3125,0.9375 0.086,0.34375 0.22655,0.76562 0.3125,0.9375 0.086,0.17187 0.22655,0.59375 0.3125,0.9375 0.086,0.34375 0.22655,0.76562 0.3125,0.9375 0.086,0.17187 0.22655,0.59375 0.3125,0.9375 0.086,0.34375 0.22655,0.76562 0.3125,0.9375 0.086,0.17187 0.22655,0.59375 0.3125,0.9375 0.086,0.34375 0.22655,0.76562 0.3125,0.9375 0.086,0.17187 0.22655,0.59375 0.3125,0.9375 0.086,0.34375 0.22655,0.76562 0.3125,0.9375 0.086,0.17187 0.22655,0.59375 0.3125,0.9375 0.086,0.34375 0.22655,0.76562 0.3125,0.9375 0.086,0.17187 0.22655,0.59375 0.3125,0.9375 0.086,0.34375 0.22655,0.76562 0.3125,0.9375 0.086,0.17187 0.22655,0.59375 0.3125,0.9375 0.086,0.34375 0.2129,0.69531 0.2822,0.78125 0.0693,0.0859 0.21615,0.57812 0.3264,1.09375 0.11025,0.51562 0.7904,3.1645 1.5114,5.88639 0.721,2.72188 1.4832,6.2375 1.6938,7.8125 0.2106,1.57498 0.46875,3.0079 0.57365,3.18426 0.4663,0.7838 1.11235,10.35203 1.1811,17.49185 l 0.0752,7.8125 -1.0752,6.875 c -1.3158,8.41361 -1.8709,11.01294 -3.80405,17.8125 l -1.51035,5.3125 -3.582,7.34375 c -1.97005,4.03906 -3.8413,7.34375 -4.1583,7.34375 -0.317,0 -0.57635,0.39843 -0.57635,0.88542 0,0.48697 -0.2473,0.97916 -0.5495,1.09375 -0.30225,0.11458 -1.08655,1.0991 -1.74295,2.18782 -1.5741,2.61078 -5.3566,7.09259 -9.48,11.23262 l -3.33495,3.3484 0.83495,0.29121 c 13.8416,4.82752 21.0322,8.07842 30.56895,13.82029 l 3.484,2.09765 5.4692,5.67342 5.46915,5.67342 1.6041,3.50374 1.60405,3.50375 -0.4002,7.2505 c -0.2201,3.98778 -0.683,12.73488 -1.0286,19.43801 -1.2783,24.79119 -3.20125,51.71659 -4.06195,56.87499 -0.4875,2.9219 -1.4542,8.5469 -2.1482,12.5 -0.694,3.95315 -1.7124,9.8594 -2.2631,13.125 -3.1457,18.653 -3.89305,21.5235 -9.1939,35.3125 -5.30795,13.8075 -7.87225,19.6682 -14.6302,33.4375 l -7.20865,14.6875 -4.15235,5.2061 c -2.2838,2.86335 -7.27905,9.1043 -11.1006,13.8688 l -6.94825,8.66265 -11.85015,11.2735 c -6.5176,6.2004 -12.81275,11.92775 -13.98925,12.72745 -2.32655,1.5814 -8.48565,6.1965 -16.8266,12.6084 -2.9219,2.2461 -7.6423,5.50855 -10.48985,7.24985 -2.84755,1.7413 -6.14645,4.01685 -7.3309,5.05685 l -2.15355,1.89085 -2.00375,4.16525 c -1.10205,2.29095 -3.0706,5.99345 -4.37455,8.2278 l -2.37075,4.0625 -2.9821,2.55505 c -3.54915,3.04095 -12.3203,8.6192 -16.35381,10.4007 -17.96744,7.93565 -47.63171,15.67245 -73.68699,19.2183 -2.30518,0.31375 -7.285,0.9939 -11.06625,1.5114 -3.78125,0.51755 -11.79688,1.3985 -17.8125,1.95755 l -10.9375,1.01655 -28.4375,0.1921 c -15.64063,0.1056 -29.84375,0.0883 -31.5625,-0.038 z M 425.625,578.97879 c 15.89983,-0.6378 37.16232,-1.808 41.5625,-2.2875 1.71875,-0.1873 8.46875,-0.73693 15,-1.22141 15.3107,-1.13574 31.32641,-2.62706 36.875,-3.43364 2.40625,-0.3498 6.625,-0.91631 9.375,-1.25892 2.75,-0.3426 7.67186,-1.05224 10.93751,-1.57697 3.2656,-0.52473 9.1253,-1.36977 13.02145,-1.87788 3.8962,-0.5081 8.11495,-1.19068 9.375,-1.51685 1.2601,-0.32617 3.97855,-0.78849 6.04105,-1.02739 2.0625,-0.2389 6.7031,-1.10824 10.3125,-1.93188 3.60935,-0.82364 8.3906,-1.89703 10.625,-2.38531 15.02725,-3.28392 37.6753,-9.86935 41.71305,-12.12899 l 0.80975,-0.45316 -9.54265,-3.0356 c -10.4134,-3.31259 -30.8034,-8.5127 -38.0823,-9.71222 -2.52195,-0.41561 -8.2416,-1.41796 -12.71035,-2.22744 -21.7288,-3.93603 -42.05125,-6.9144 -53.12501,-7.78577 -4.125,-0.32459 -11.4375,-1.00953 -16.25,-1.52209 -26.52357,-2.82493 -53.53316,-4.70441 -67.70778,-4.7115 l -10.83279,-0.005 -4.84752,3.75 c -2.66613,2.0625 -5.10388,3.75749 -5.41721,3.76665 -0.31334,0.009 -2.2359,1.27479 -4.27236,2.8125 -2.03646,1.53772 -3.97624,2.79585 -4.31063,2.79585 -0.33438,0 -1.83225,1.0032 -3.32859,2.22934 -1.49634,1.22614 -2.72062,2.04556 -2.72062,1.82093 0,-0.22462 -1.1804,0.45967 -2.62312,1.52066 -1.44272,1.06099 -2.91928,1.93918 -3.28125,1.95154 -0.36197,0.0124 -1.41737,0.64518 -2.34534,1.40625 l -1.68721,1.38378 0.1521,1.0307 c 0.0837,0.56688 0.44794,1.41063 0.80952,1.875 0.59921,0.76957 4.80012,9.17269 4.95263,9.9068 0.10234,0.49265 1.52812,3.87818 1.85812,4.41212 0.16385,0.26512 -0.44514,1.3651 -1.3533,2.44439 l -1.65121,1.96235 -0.88543,-0.33978 c -0.76716,-0.25924 -1.02983,-0.5734 -0.5106,0.26673 l 0.37484,0.60649 -3.5747,2.28671 c -6.56511,4.19965 -16.78748,8.20978 -29.29755,11.49311 l -6.875,1.8044 30,-0.2738 c 16.5,-0.1506 36.04688,-0.51635 43.4375,-0.8128 z M 143.88924,555.59665 c -1.50292,-3.03464 -3.19352,-7.15592 -3.6003,-8.77664 -0.23508,-0.93664 -0.6821,-1.86037 -0.99337,-2.05276 -0.31128,-0.19237 -0.42385,-0.57972 -0.25015,-0.86077 0.1737,-0.28105 -0.0469,-0.81206 -0.49031,-1.18003 l -0.80612,-0.66902 -4.03074,1.24791 c -13.10467,4.05719 -16.21825,5.11782 -16.21825,5.5247 0,0.46877 11.28897,4.43685 17.44024,6.13025 1.92349,0.52952 4.76289,1.31285 6.30976,1.74073 1.54688,0.42788 2.93012,0.67064 3.07385,0.53946 0.14376,-0.13118 -0.0518,-0.87091 -0.43461,-1.64383 z m 525.41327,-23.20058 -0.0725,-1.32972 -0.30725,1.25 c -0.169,0.6875 -0.62855,1.67187 -1.02125,2.1875 l -0.714,0.9375 1.09375,-0.85778 1.09375,-0.85778 z M 513.69792,426.15427 c -0.14323,-0.12352 -1.10417,-0.41331 -2.13542,-0.64398 l -1.875,-0.41941 0.9375,0.63441 c 0.84398,0.57113 3.7001,0.96985 3.07292,0.42898 z m 36.30209,-15.73954 c 0,-0.24995 -0.5625,0.26065 -1.25,1.13466 -0.6875,0.87401 -1.25,1.79363 -1.25,2.04358 0,0.24995 0.5625,-0.26065 1.25,-1.13467 0.6875,-0.87401 1.25,-1.79362 1.25,-2.04357 z m -36.56251,0.62905 c -1.03125,-0.47221 -2.29687,-0.84984 -2.8125,-0.8392 -0.51562,0.0106 0.0469,0.39845 1.25,0.86177 2.85357,1.0989 3.97629,1.08268 1.5625,-0.0226 z m -11.71875,-7.215 c -0.60156,-0.35037 -1.09375,-1.01051 -1.09375,-1.46696 0,-0.45645 -0.42396,-1.18177 -0.94213,-1.61182 l -0.94214,-0.7819 0.78918,1.48662 c 1.35584,2.55408 1.77101,3.04971 2.53823,3.03012 l 0.74436,-0.019 -1.09375,-0.63705 z m 37.71911,-2.76243 0.64605,-1.25 -1.27805,1.5625 c -0.70295,0.85937 -1.28,1.84375 -1.2824,2.1875 -0.005,0.66879 0.86085,-0.4614 1.9144,-2.5 z m -135.01034,-2.74619 c -1.06014,-1.33853 -1.92752,-2.69102 -1.92752,-3.00554 0,-0.31453 -0.42644,-1.1178 -0.94765,-1.78507 l -0.94766,-1.2132 0.76395,1.875 c 0.77174,1.89411 4.09663,6.5625 4.6739,6.5625 0.17187,0 -0.55488,-1.09517 -1.61502,-2.43369 z m 37.87856,0.78144 c -0.3095,-0.30951 -3.55608,0.86983 -3.55608,1.29177 0,0.1625 0.85811,-0.004 1.90691,-0.3693 1.04879,-0.36561 1.79092,-0.78072 1.64917,-0.92247 z M 453.125,363.05889 c 0,-0.10724 -0.91406,-0.83088 -2.03125,-1.60811 l -2.03125,-1.41313 1.7536,1.6081 c 1.61758,1.48336 2.3089,1.90647 2.3089,1.41314 z m 88.75001,-3.58554 c -0.51565,-0.35 -1.5,-0.92707 -2.1875,-1.28238 l -1.25,-0.64602 1.5625,1.27805 c 0.85935,0.70293 1.84375,1.28 2.1875,1.28238 0.34375,0.002 0.2031,-0.28203 -0.3125,-0.63203 z m -78.17985,-5.907 c -1.42744,-1.89063 -2.73661,-3.4375 -2.90928,-3.4375 -0.17266,0 -0.0504,0.35156 0.27174,0.78125 2.78153,3.71035 4.71862,6.09375 4.95264,6.09375 0.15414,0 -0.88766,-1.54688 -2.3151,-3.4375 z"
       style="fill:#7e7e7e" />
    <g
       id="g3737">
      <path
         inkscape:connector-curvature="0"
         id="path3726"
         d="m 149.36364,244.48468 c -12.90324,-1.12923 -15.42937,-1.24062 -28.54605,-1.25864 l -14.3901,-0.0198 -0.15267,-9.29639 c -0.084,-5.11301 -0.25895,-9.40266 -0.38885,-9.53255 -0.17414,-0.17414 -9.472341,3.57594 -10.288944,4.14966 -0.107242,0.0753 -1.509805,13.34736 -1.541439,14.58615 -0.0088,0.3448 -1.122211,0.46565 -4.290034,0.46565 l -4.278144,0 -0.09902,-10.33756 -0.09902,-10.33757 -3.445855,-0.10711 -3.445856,-0.10711 0,-3.21172 0,-3.21172 7.883088,0.2455 c 4.335698,0.13503 12.591781,0.24678 18.346854,0.24833 l 10.46376,0.003 2.03746,3.53616 c 1.1206,1.94488 2.12642,3.53415 2.23515,3.5317 0.10873,-0.002 1.5361,-1.67881 3.17194,-3.72525 l 2.97426,-3.72079 19.71587,0 19.71587,0 -0.2455,7.88308 c -0.13503,4.3357 -0.2455,10.95733 -0.2455,14.71474 0,5.24107 -0.10842,6.82112 -0.46566,6.78644 -0.25611,-0.0249 -6.83583,-0.60269 -14.6216,-1.28406 z"
         style="fill:#45b29d;fill-opacity:1" />
      <path
         inkscape:connector-curvature="0"
         id="path3712"
         d="m 334.9213,851.13182 c -46.58,-4.01042 -80.0614,-11.51058 -105.7886,-23.6977 -12.9661,-6.1421 -15.924,-8.50277 -22.1055,-17.64246 -7.4993,-11.08817 -18.9652,-21.18154 -41.2183,-36.28423 -14.4927,-9.83594 -33.0153,-30.18912 -49.3613,-54.23992 -5.2356,-7.70338 -15.6051,-33.01126 -22.3467,-54.53932 -6.0291,-19.25322 -9.8825,-39.91708 -12.0871,-64.81816 -0.3592,-4.05658 -1.8565,-18.04391 -3.3275,-31.08295 -1.4709,-13.03904 -2.9135,-27.79616 -3.2057,-32.7936 -0.49521,-8.46744 -0.3375,-9.41716 2.3159,-13.94487 6.3886,-10.90134 18.7944,-18.62437 42.7051,-26.58553 6.6644,-2.21893 12.2802,-4.13778 12.4796,-4.26412 0.1994,-0.12633 1.523,-5.72749 2.9413,-12.44702 3.5984,-17.04765 8.6592,-31.1273 17.914,-49.83816 6.694,-13.53345 8.318,-16.06831 10.2945,-16.06831 2.1781,0 1.7693,1.15527 -5.6854,16.06831 -8.6317,17.26757 -14.5115,33.53524 -18.5412,51.29822 -3.6109,15.91689 -3.5812,35.10737 0.077,49.53747 2.8925,11.41081 8.5807,27.31761 10.4228,29.14663 1.0489,1.04155 22.1279,5.67926 25.8034,5.67716 0.9487,-5.3e-4 0.4402,-1.31435 -1.4863,-3.84021 -1.9392,-2.5424 -3.0913,-5.53364 -3.4104,-8.85485 -0.7899,-8.22046 1.7583,-11.31148 21.9738,-26.65452 9.8076,-7.44375 17.832,-14.03377 17.832,-14.64449 0,-0.61072 -5.9846,-9.10707 -13.2991,-18.88075 -7.3145,-9.77369 -13.9303,-19.60245 -14.7018,-21.84169 -2.9221,-8.48165 0.1542,-12.67315 20.0985,-27.38423 20.0428,-14.78378 22.1482,-14.06099 44.3621,15.2298 6.7803,8.94047 12.5302,16.2554 12.7775,16.2554 0.2473,0 9.298,-6.63805 20.1127,-14.75123 18.809,-14.11054 19.8793,-14.75123 24.6419,-14.75123 4.0821,0 5.6596,0.5977 8.7584,3.3185 5.116,4.49187 21.2935,25.23692 23.1553,29.69305 1.5958,3.8192 1.1252,10.43732 -0.9597,13.49758 -0.6477,0.95073 -9.467,8.08207 -19.5983,15.84744 -10.894,8.34991 -18.3706,14.79613 -18.2982,15.77641 0.067,0.91165 4.3766,7.29348 9.5763,14.18185 20.817,27.57767 22.0974,30.53817 16.6645,38.53333 l -2.6124,3.84452 8.1441,0.77082 c 10.3618,0.98069 97.5564,-0.22158 119.8321,-1.65231 78.5961,-5.04805 131.1388,-13.14506 172.1028,-26.52162 5.4439,-1.77767 9.437,-3.61523 8.9387,-4.11346 -1.7763,-1.77633 -34.4798,-10.50583 -50.7019,-13.53379 -43.7691,-8.16981 -115.2549,-15.83873 -147.9855,-15.87574 -9.1954,-0.0105 -9.2305,-1.3e-4 -15.3108,4.47597 -3.3519,2.46751 -10.9962,7.55464 -16.9872,11.30474 -5.9911,3.75011 -11.1474,7.4816 -11.4585,8.29221 -0.311,0.81062 1.1676,4.9764 3.2858,9.25729 3.2788,6.6262 3.6586,8.09221 2.5545,9.86004 -1.1721,1.87694 -1.7292,1.15165 -5.7942,-7.54392 -2.4736,-5.29129 -4.4974,-10.46939 -4.4974,-11.50688 0,-2.02691 1.6881,-3.31658 19.4927,-14.89208 21.2684,-13.8275 43.1094,-30.9969 68.0219,-53.47282 l 5.856,-5.28326 8.8952,1.0437 c 4.8924,0.57403 17.667,2.01034 28.3879,3.1918 34.831,3.83841 66.7686,9.28598 93.0903,15.87836 14.4358,3.6155 12.8024,4.16921 22.1063,-7.49365 13.3137,-16.6894 19.6315,-35.69303 19.658,-59.13033 0.019,-16.57653 -1.9425,-26.67053 -9.51,-48.94558 -22.0229,-64.82435 -64.9027,-120.63706 -110.0665,-143.26346 -13.8608,-6.94405 -23.9895,-9.68176 -41.5868,-11.24057 -46.454,-4.11498 -108.3127,13.33756 -167.5646,47.27594 -16.6017,9.5091 -26.084,15.78894 -42.9696,28.45735 -19.9276,14.95055 -34.9263,27.95729 -51.3165,44.50086 -9.4288,9.51714 -13.2938,12.74567 -15.2583,12.74567 -2.2852,0 -1.2491,-1.39915 7.886,-10.64959 26.7462,-27.08379 61.9524,-55.22699 91.6486,-73.26213 42.4752,-25.79606 82.7367,-42.14474 122.7514,-49.84469 32.1985,-6.19591 65.7974,-4.91843 88.6315,3.36992 6.6731,2.4222 25.4866,13.31607 29.906,17.3169 1.1595,1.04968 4.0044,3.30884 6.322,5.02036 12.514,9.24152 33.8479,33.09248 48.1096,53.78577 16.0103,23.23046 27.2825,45.91738 38.2915,77.06681 6.7252,19.02887 8.9593,30.89271 8.9314,47.43052 -0.045,26.72174 -8.131,48.66408 -24.2666,65.85065 -2.8418,3.02684 -5.0587,5.55953 -4.9265,5.62821 0.1321,0.0687 3.7964,1.46594 8.1427,3.10503 19.8081,7.47002 34.8503,18.04081 39.069,27.45557 1.7833,3.97949 1.8065,5.6549 0.4161,30.0293 -2.3615,41.40013 -3.5591,54.18372 -6.91,73.75616 -4.3191,25.22774 -6.6207,34.01407 -13.1003,50.01094 -11.65,28.76126 -18.2936,41.04443 -30.2248,55.88184 -17.2617,21.46618 -39.9029,41.7224 -66.0028,59.05005 -7.0533,4.68264 -8.0978,5.85265 -11.8019,13.21965 -6.2043,12.33972 -15.5303,19.20761 -35.7569,26.33226 -22.1042,7.78603 -47.0135,13.18658 -76.9374,16.68071 -21.5177,2.51256 -77.5585,3.7474 -96.4098,2.12436 z M 258.3975,571.72464 c -5.3945,-7.74751 -9.7552,-12.45027 -11.0751,-11.94377 -3.1947,1.22591 -17.4795,12.7557 -16.1042,12.99831 5.5313,0.97579 17.2929,2.12417 22.9065,2.23657 l 6.6571,0.13329 -2.3843,-3.4244 z M 144.7357,556.89166 c 0,-0.83437 -5.5231,-13.95321 -6.1558,-14.62167 -0.897,-0.94772 -21.2393,5.34345 -21.2393,6.5686 0,1.08877 21.6059,8.30777 25.0244,8.36119 1.3039,0.0203 2.3707,-0.11829 2.3707,-0.30812 z m 524.7064,-24.15242 c -0.013,-1.91707 -0.2116,-2.06829 -1.0376,-0.79024 -1.3201,2.04279 -1.3201,3.16097 0,3.16097 0.5795,0 1.0464,-1.06683 1.0376,-2.37073 z"
         style="fill:#45b29d;fill-opacity:1" />
      <path
         sodipodi:nodetypes="ccccccccccssscsscccsccscscccssccccccccccscscscscscscsccccscscccccsssscscsccscccc"
         inkscape:connector-curvature="0"
         id="path3655"
         d="m 134.21193,292.00697 -7.39977,-1.68903 -3.75681,-2.09123 -3.75681,-2.09123 -11.66129,2.90151 -11.661273,2.90151 -8.659621,-7.2162 -8.659623,-7.21621 0,-11.66938 0,-11.66938 6.43211,-0.32212 c 3.537659,-0.17716 6.628435,-0.32212 6.868389,-0.32212 0.356067,0 0.610657,0.52328 1.384703,2.84607 l 0.94842,2.84606 2.372094,0.27177 c 1.304656,0.14947 2.754966,0.32977 3.222913,0.40066 l 0.850818,0.1289 1.25717,-2.50675 1.25719,-2.50675 2.10418,6.9e-4 c 1.15731,3.9e-4 3.84598,0.0675 5.97484,0.1491 l 3.87065,0.1484 1.70097,2.25367 c 1.35956,1.80133 1.79371,2.23203 2.16301,2.14585 0.25412,-0.0593 1.95569,-0.23326 3.78126,-0.38657 l 3.31922,-0.27876 1.68985,-2.10869 1.68986,-2.1087 9.67663,0.0993 c 5.32214,0.0546 10.80674,0.15615 12.188,0.22567 l 2.51136,0.12643 3.70012,3.30777 3.70011,3.30778 6.5917,-3.5548 6.5917,-3.55479 8.59924,8.7e-4 c 4.72958,5.7e-4 9.75849,0.0678 11.17539,0.14947 l 2.57615,0.14844 3.4575,3.29326 3.4575,3.29326 0.88499,2.64785 c 0.48675,1.45632 0.89762,2.66595 0.91305,2.68809 0.0155,0.0221 2.17863,-0.14823 4.80713,-0.3786 3.78389,-0.33163 6.7822,-1.32681 7.0526,-1.10623 0.18784,0.15323 0.36352,1.16133 1.17749,1.84667 0.81398,0.68534 0.35571,2.01433 0.55584,2.1662 0.29978,0.2275 1.02157,-0.0114 4.09834,-1.35659 l 3.73446,-1.63272 6.71672,-0.53199 c 3.6942,-0.29261 8.61051,-0.98824 8.9574,-0.95554 0.42026,0.0396 1.32933,0.0456 2.6363,2.12815 l 2.0056,3.19568 0.16352,8.19668 c 0.0899,4.50816 0.12945,9.00493 0.0878,9.99281 l -0.0757,1.79615 -1.70763,1.53655 -1.70764,1.53657 -8.97201,-1.32732 c -4.9346,-0.73002 -9.03294,-1.42521 -9.10741,-1.54486 -0.0745,-0.11966 -1.36045,-1.94899 -2.85772,-4.06519 l -2.72233,-3.84764 -5.01898,-2.5373 -5.01898,-2.53731 -2.87529,-0.0913 -2.87529,-0.0914 -1.9816,6.3961 c -1.08988,3.51785 -2.10132,6.51001 -2.24763,6.64923 -0.1808,0.17205 -4.13201,0.33811 -12.33334,0.51832 -6.63703,0.14586 -13.4046,0.32755 -15.03905,0.40378 l -2.97172,0.13858 -1.57639,-2.64915 c -0.86702,-1.45704 -1.63015,-2.6461 -1.69583,-2.64238 -0.0657,0.003 -1.29032,1.64306 -2.7214,3.64297 l -2.60195,3.63618 -3.31787,4.6e-4 c -1.82479,2.2e-4 -6.28911,0.0484 -9.9207,0.10706 l -6.60287,0.10666 -7.39977,-1.68904 0,-3e-5 z"
         style="fill:#45b29d;fill-opacity:1" />
    </g>
    <path
       inkscape:connector-curvature="0"
       id="path5101"
       d="m 346.5625,852.25464 c -1.71875,-0.12665 -7.58107,-0.5248 -13.02738,-0.88475 -16.92594,-1.1186 -43.01941,-4.72075 -59.16012,-8.1669 -17.04506,-3.63925 -34.38995,-9.59205 -48.60647,-16.68175 l -8.29398,-4.13615 -3.66007,-3.49355 -3.66009,-3.4936 -4.05398,-6.2283 -4.05398,-6.2283 -4.9436,-4.6875 c -7.59606,-7.20255 -16.66823,-14.2928 -27.20237,-21.25965 l -9.58796,-6.34105 -6.78149,-6.3559 c -3.72983,-3.49575 -7.17586,-6.5812 -7.65787,-6.8566 -3.28438,-1.8765 -29.32927,-35.77105 -33.23318,-43.2493 -0.7178,-1.375 -3.17491,-7 -5.46023,-12.5 -2.28533,-5.5 -4.82942,-11.4215 -5.65353,-13.15885 -1.45776,-3.07325 -2.74181,-6.8375 -6.064605,-17.77865 -0.887365,-2.92185 -3.02295,-9.8125 -4.745745,-15.3125 l -3.132355,-10 -0.62044,-4.6875 c -0.34124,-2.5781 -1.03746,-7.0781 -1.547145,-10 -0.50969,-2.92185 -1.117405,-7.28125 -1.35048,-9.6875 -0.233075,-2.40625 -0.79647,-6.2031 -1.251995,-8.4375 -0.45552,-2.23435 -1.14919,-9.2656 -1.541485,-15.625 -0.39229,-6.35935 -0.862625,-11.98435 -1.04518,-12.5 -0.32905,-0.9294 -0.829175,-5.5105 -2.11518,-19.37499 -0.366675,-3.95313 -1.216785,-11.0682 -1.889135,-15.81127 L 75,540.6938 l 0,-7.1077 0,-7.10771 2.16881,-4.26852 2.168815,-4.26852 3.924935,-3.82025 c 8.10119,-7.88512 16.221435,-12.02971 38.53285,-19.66726 4.9406,-1.69125 9.35369,-3.07499 9.80686,-3.07499 1.12242,0 1.50558,-0.75237 2.14938,-4.22045 3.21418,-17.31458 4.45313,-21.80912 10.89662,-39.52955 4.06338,-11.17479 20.13204,-42.00524 24.24812,-46.5241 0.60698,-0.66638 1.10361,-1.44139 1.10361,-1.72225 0,-0.28085 1.68102,-2.23391 3.73559,-4.34014 2.05458,-2.10622 3.59969,-4.04939 3.43361,-4.31812 -0.1661,-0.26875 -0.0729,-0.58296 0.20703,-0.69826 0.27997,-0.1153 1.46366,-1.61588 2.63043,-3.33463 1.16677,-1.71875 2.41602,-3.42655 2.77612,-3.7951 0.36009,-0.36855 1.35784,-1.70256 2.21722,-2.96447 0.85937,-1.26191 1.77343,-2.29631 2.03125,-2.29866 0.25781,-0.002 0.46875,-0.42615 0.46875,-0.94177 0,-0.51563 0.21093,-0.93942 0.46875,-0.94177 0.25781,-0.002 1.13268,-0.97925 1.94417,-2.17088 0.81148,-1.19162 2.0771,-2.84733 2.8125,-3.67935 0.73539,-0.83201 2.32145,-2.71691 3.52458,-4.18866 1.20312,-1.47175 2.75,-3.31165 3.4375,-4.08866 0.6875,-0.77701 2.51562,-2.89702 4.0625,-4.71113 1.54687,-1.8141 3.97681,-4.50408 5.39986,-5.97772 1.42305,-1.47363 2.47079,-2.67933 2.32831,-2.67933 -0.34371,0 23.18044,-23.36195 26.74693,-26.5625 1.53221,-1.375 4.43632,-3.90625 6.45357,-5.625 2.01726,-1.71875 4.53198,-3.97595 5.58828,-5.016 2.48893,-2.45063 40.66598,-31.46971 42.08752,-31.9915 0.59567,-0.21865 2.70022,-1.63065 4.67678,-3.1378 1.97656,-1.50714 3.59375,-2.57031 3.59375,-2.3626 0,0.20771 1.30607,-0.6196 2.90237,-1.83847 1.59631,-1.21887 3.16195,-2.21613 3.4792,-2.21613 0.31726,0 1.49867,-0.70313 2.62537,-1.5625 1.1267,-0.85938 2.2767,-1.5625 2.55556,-1.5625 0.27885,0 1.42885,-0.70313 2.55555,-1.5625 1.1267,-0.85938 2.2517,-1.5625 2.5,-1.5625 0.2483,0 1.39207,-0.71744 2.5417,-1.59431 1.14964,-0.87687 2.09025,-1.42022 2.09025,-1.20744 0,0.21278 0.77343,-0.14836 1.71875,-0.80253 0.94531,-0.65417 2.98437,-1.81216 4.53125,-2.57333 2.70645,-1.33175 3.44365,-1.73838 6.875,-3.79218 0.85937,-0.51437 1.75,-0.94253 1.97917,-0.95147 0.22916,-0.009 0.62488,-0.22446 0.87937,-0.47895 0.65387,-0.65387 10.695,-5.47479 11.40303,-5.47479 0.32195,0 0.93293,-0.41878 1.35771,-0.93062 0.4248,-0.51184 0.98987,-0.79619 1.25572,-0.63188 0.26585,0.1643 0.83092,-0.12004 1.25571,-0.63188 0.42479,-0.51184 1.02819,-0.93062 1.34089,-0.93062 0.3127,0 1.6142,-0.46677 2.89222,-1.03726 1.27802,-0.57049 2.4643,-1.07683 2.63618,-1.12521 0.17187,-0.0483 1.633,-0.70661 3.24696,-1.46274 1.61395,-0.75614 3.05616,-1.37479 3.20492,-1.37479 0.14876,0 1.3595,-0.4751 2.69054,-1.05578 1.33104,-0.58068 2.5607,-1.09715 2.73258,-1.14773 0.55229,-0.16251 2.74254,-1.07481 5.43446,-2.2636 1.44207,-0.63684 2.75971,-1.15789 2.92806,-1.15789 0.16836,0 1.09785,-0.328 2.06554,-0.72888 0.96769,-0.40088 1.97037,-0.7876 2.22819,-0.85938 0.25781,-0.0718 0.60937,-0.20081 0.78125,-0.28674 0.17187,-0.0859 0.59375,-0.22657 0.9375,-0.3125 0.34375,-0.0859 0.76562,-0.22657 0.9375,-0.3125 0.17187,-0.0859 0.59375,-0.22657 0.9375,-0.3125 0.34375,-0.0859 0.76562,-0.22657 0.9375,-0.3125 0.17187,-0.0859 0.59375,-0.22657 0.9375,-0.3125 0.34375,-0.0859 0.76562,-0.22657 0.9375,-0.3125 0.17187,-0.0859 0.59375,-0.22657 0.9375,-0.3125 0.34375,-0.0859 0.76562,-0.22657 0.9375,-0.3125 0.17187,-0.0859 0.59375,-0.22657 0.9375,-0.3125 0.34375,-0.0859 0.76562,-0.22657 0.9375,-0.3125 0.17187,-0.0859 0.59375,-0.22657 0.9375,-0.3125 0.34375,-0.0859 0.76562,-0.22657 0.9375,-0.3125 0.17187,-0.0859 0.59375,-0.22657 0.9375,-0.3125 0.34375,-0.0859 0.69531,-0.21293 0.78125,-0.2822 0.0859,-0.0693 0.62985,-0.21743 1.2087,-0.32926 0.57884,-0.11182 3.95095,-1.10381 7.49357,-2.20442 3.54261,-1.1006 6.97501,-2.10392 7.62755,-2.22958 0.65253,-0.12567 2.62417,-0.63826 4.38143,-1.13909 1.75725,-0.50084 4.32,-1.07863 5.695,-1.28398 1.375,-0.20536 2.92187,-0.49099 3.4375,-0.63475 0.51562,-0.14376 1.98697,-0.41603 3.26967,-0.60506 1.28268,-0.18902 3.53268,-0.61086 5,-0.93742 4.07441,-0.90679 6.10605,-1.24326 9.85533,-1.63219 1.89062,-0.19612 4.14062,-0.47932 5,-0.62934 9.04368,-1.57868 36.65787,-1.53187 46.18633,0.0783 5.95703,1.00664 14.91509,2.83263 16.31367,3.32533 0.85937,0.30274 3.39062,1.06077 5.625,1.68449 2.23435,0.62373 4.26915,1.42883 4.5217,1.78911 0.25255,0.36028 0.46345,0.44098 0.46875,0.17933 0.012,-0.59889 10.2474,4.49356 10.5304,5.23924 0.11455,0.30194 0.58665,0.54899 1.0491,0.54899 0.4624,0 1.2124,0.36971 1.66665,0.82157 0.45425,0.45187 2.79465,1.97225 5.2009,3.37863 2.40625,1.40638 5.06551,3.15878 5.9095,3.89421 0.84395,0.73543 2.46115,1.90986 3.59375,2.60985 1.1326,0.69998 2.05925,1.531 2.05925,1.84671 0,0.31572 0.2791,0.57403 0.62026,0.57403 0.59875,0 2.73945,1.6358 5.11185,3.90625 0.6286,0.60156 1.1429,0.9785 1.1429,0.83764 0,-0.50103 3.95885,3.17051 11.1471,10.33802 8.67315,8.64818 10.8181,10.95765 14.2816,15.37711 1.43895,1.83606 3.16155,3.81983 3.82795,4.40838 1.6999,1.5012 16.99335,21.77554 16.99335,22.52786 0,0.33962 1.125,2.04073 2.5,3.78022 1.375,1.73951 2.5,3.39686 2.5,3.68301 0,0.28614 0.8681,1.70066 1.92905,3.14338 1.061,1.44272 1.7498,2.62313 1.5307,2.62313 -0.2191,0 0.2775,0.91406 1.1035,2.03125 0.82605,1.11718 1.67815,2.45312 1.8936,2.96875 0.2154,0.51562 1.10255,2.0625 1.9714,3.4375 0.86885,1.375 1.975,3.34375 2.4581,4.375 0.48315,1.03125 1.11415,2.10937 1.4023,2.39583 0.2881,0.28646 0.5439,0.70834 0.56845,0.9375 0.0769,0.71865 1.7269,4.12374 2.4733,5.10417 0.39255,0.51562 1.08759,1.92187 1.54459,3.125 0.45695,1.20312 1.18641,2.60937 1.6209,3.125 0.4345,0.51562 0.771,1.07812 0.74775,1.25 -0.0235,0.17187 0.56591,1.64753 1.30925,3.27924 1.3765,3.02156 2.7124,6.15683 2.8637,6.72076 0.046,0.17187 0.74155,1.71875 1.5454,3.4375 0.8039,1.71875 1.35225,3.15208 1.21856,3.18519 -0.1337,0.0331 0.14295,0.52529 0.61469,1.09375 0.47181,0.56846 0.6483,1.03356 0.39225,1.03356 -0.25604,0 -0.1876,0.35156 0.1522,0.78125 0.33975,0.42968 2.0994,5.28125 3.9103,10.78125 1.8109,5.5 3.57056,10.35156 3.9103,10.78125 0.33975,0.42968 0.40825,0.78125 0.1522,0.78125 -0.25604,0 -0.11545,0.42187 0.3125,0.9375 0.42795,0.51562 0.56855,0.9375 0.3125,0.9375 -0.25604,0 -0.1738,0.35156 0.18281,0.78125 0.35664,0.42968 0.67229,0.99218 0.70155,1.25 0.0295,0.25781 0.0747,0.53906 0.10095,0.625 0.0265,0.0859 0.1339,0.57812 0.2391,1.09375 0.10524,0.51562 0.6504,2.76562 1.21155,5 0.56115,2.23437 1.15189,4.76562 1.31285,5.625 0.16095,0.85937 0.4382,2.26562 0.61614,3.125 0.9653,4.66183 1.6495,13.96522 1.65476,22.5 l 0.005,7.8125 -0.98385,5.9375 c -2.2069,13.31885 -3.4853,17.58229 -8.1523,27.1875 -2.00425,4.125 -3.6006,7.71093 -3.5475,7.96875 0.0532,0.25781 -0.2012,0.46875 -0.56525,0.46875 -0.36405,0 -0.5029,0.25723 -0.3086,0.57162 0.1943,0.31438 0.1242,0.66595 -0.15575,0.78125 -0.27995,0.1153 -1.4644,1.60977 -2.6321,3.32106 -2.1639,3.17127 -3.81885,5.26637 -5.7729,7.30819 -0.6016,0.62858 -1.09375,1.27072 -1.09375,1.42697 0,0.37716 -2.39156,2.74603 -4.89005,4.84373 l -2.0133,1.69033 2.9829,0.93492 c 9.03725,2.83247 20.12985,7.89795 28.96695,13.2278 l 3.484,2.10129 5.46915,5.67342 5.4692,5.67342 1.6041,3.50374 1.60405,3.50374 -0.4002,7.25051 c -0.22015,3.98778 -0.683,12.73488 -1.02865,19.43801 -1.27825,24.79119 -3.2012,51.71659 -4.0619,56.87499 -0.4875,2.9219 -1.4542,8.5469 -2.1482,12.5 -0.694,3.95315 -1.7124,9.8594 -2.26315,13.125 -3.14565,18.653 -3.893,21.5235 -9.19385,35.3125 -5.30795,13.8075 -7.87225,19.6682 -14.63025,33.4375 l -7.2086,14.6875 -4.15235,5.2061 c -2.2838,2.86335 -7.2791,9.1043 -11.1006,13.8688 l -6.94825,8.66265 -11.85015,11.2735 c -6.5176,6.2004 -12.8128,11.92775 -13.9893,12.72745 -2.32655,1.5814 -8.4856,6.1965 -16.82655,12.6084 -2.9219,2.2461 -7.6423,5.50855 -10.48985,7.24985 -2.84755,1.7413 -6.14645,4.01685 -7.3309,5.05685 l -2.1536,1.89085 -2.00375,4.16525 c -1.1022,2.29095 -3.07075,5.99345 -4.3747,8.2278 l -2.37075,4.0625 -2.9821,2.55505 c -3.54915,3.04095 -12.3203,8.6192 -16.35382,10.4007 -17.96744,7.93565 -47.6317,15.67245 -73.68698,19.2183 -2.30519,0.31375 -7.28501,0.9939 -11.06626,1.5114 -3.78125,0.51755 -11.79687,1.3985 -17.8125,1.95755 l -10.9375,1.01655 -28.4375,0.1921 c -15.64062,0.1056 -29.84375,0.0883 -31.5625,-0.038 z m 67.5,-5.52235 c 41.65163,-3.8258 78.57671,-11.97695 102.87824,-22.7102 4.02274,-1.7767 12.88457,-7.38465 15.87176,-10.0439 2.83936,-2.52765 5.1843,-6.18445 8.88966,-13.86255 l 2.5701,-5.3257 3.6451,-2.70455 c 2.00485,-1.48745 5.47325,-3.79575 7.70764,-5.1295 2.23435,-1.3338 6.59375,-4.39285 9.6875,-6.79795 3.09375,-2.4051 8.5781,-6.5129 12.1875,-9.12845 l 6.5625,-4.75555 11.25,-10.72245 11.25,-10.7225 6.875,-8.5502 c 3.78125,-4.70265 8.73975,-10.893 11.01886,-13.75635 l 4.14385,-5.2061 7.2178,-14.6875 c 6.76395,-13.7639 9.31655,-19.5947 14.63805,-33.4375 5.30085,-13.789 6.0482,-16.6595 9.1939,-35.3125 0.5507,-3.2656 1.5691,-9.17185 2.2631,-13.125 0.694,-3.9531 1.6607,-9.5781 2.1482,-12.5 0.91065,-5.45775 2.9545,-34.53689 4.0634,-57.81249 0.3439,-7.21875 0.7687,-14.67188 0.94395,-16.5625 l 0.3187,-3.4375 -0.87205,2.34967 c -1.0227,2.7557 -1.6529,3.58482 -5.3091,6.98514 -6.1064,5.67905 -13.9377,10.15463 -26.28265,15.02052 -2.2077,0.87019 -4.3171,1.5839 -4.6875,1.58602 -0.37045,0.002 -1.4995,0.43458 -2.50905,0.96102 -1.00955,0.52645 -3.1189,1.23758 -4.6875,1.58028 -1.56855,0.34272 -3.6957,1.00615 -4.72695,1.47431 -1.03125,0.46816 -3.14065,1.05272 -4.6875,1.29903 -1.5469,0.24631 -3.09375,0.67085 -3.4375,0.94343 -0.34375,0.27256 -2.45315,0.82675 -4.6875,1.2315 -2.2344,0.40476 -4.625,0.99553 -5.3125,1.31284 -0.6875,0.3173 -2.51565,0.83341 -4.0625,1.14691 -1.5469,0.3135 -5.0625,1.0211 -7.8125,1.57245 -2.75,0.55135 -5.84375,1.26185 -6.875,1.57888 -1.03125,0.31703 -4.2577,0.89517 -7.16985,1.28473 -2.91215,0.38958 -5.49715,0.83334 -5.7444,0.98614 -0.47785,0.29533 -9.42145,1.7121 -17.71075,2.8056 -2.75,0.36277 -5.9844,0.92785 -7.1875,1.25572 -2.1133,0.5759 -6.09155,1.0691 -20,2.47945 -3.6094,0.366 -7.54688,0.9264 -8.75001,1.2453 -2.39405,0.63455 -12.74508,1.5416 -28.75,2.5193 -5.67187,0.34645 -11.29687,0.8973 -12.5,1.2241 -2.0816,0.56535 -10.38205,0.9853 -50.3125,2.5455 -19.68007,0.76895 -75.97084,1.0257 -96.875,0.44185 -15.75374,-0.44 -38.00227,-1.49245 -50.3125,-2.38 -20.23108,-1.45865 -31.00244,-2.3724 -31.875,-2.7039 -0.51562,-0.1959 -5.29687,-0.66715 -10.625,-1.0472 -5.32812,-0.38005 -10.53125,-0.9437 -11.5625,-1.25255 -1.03125,-0.3088 -5.67187,-0.8708 -10.3125,-1.24885 -4.64062,-0.37805 -9.28125,-0.94055 -10.3125,-1.2501 -1.03125,-0.30949 -5.25,-0.99991 -9.375,-1.53425 -6.6187,-0.85738 -12.42907,-1.79142 -19.6875,-3.16487 -1.20312,-0.22765 -4.4375,-0.83365 -7.1875,-1.34667 -2.75,-0.51301 -7.10937,-1.32783 -9.6875,-1.81069 -2.57812,-0.48287 -5.25,-1.13513 -5.9375,-1.44947 -0.6875,-0.31434 -3.1697,-0.8934 -5.51601,-1.2868 -2.34631,-0.39341 -4.73694,-0.96407 -5.3125,-1.26814 -0.57557,-0.30406 -2.87461,-1.00735 -5.10899,-1.56285 -8.0419,-1.99934 -10.95824,-2.8034 -12.1875,-3.36018 -0.6875,-0.31139 -4.0625,-1.46987 -7.5,-2.57439 -3.4375,-1.10452 -6.87292,-2.40603 -7.63426,-2.89225 -0.76134,-0.48622 -1.69282,-0.88403 -2.06995,-0.88403 -2.42975,0 -14.84266,-7.24021 -20.29579,-11.83815 l -3.75,-3.16189 -1.40625,-2.59829 -1.40625,-2.59828 0,2.25578 c 0,1.24068 0.550105,6.13648 1.222455,10.87956 0.67235,4.74307 1.52246,11.85814 1.889135,15.81127 1.286005,13.86447 1.78613,18.44559 2.11518,19.37499 0.182555,0.51565 0.65289,6.14065 1.04518,12.5 0.392295,6.3594 1.085965,13.39065 1.541485,15.625 0.455525,2.2344 1.01892,6.03125 1.251995,8.4375 0.233075,2.40625 0.838005,6.76565 1.344285,9.6875 0.506285,2.9219 1.31231,7.9844 1.79117,11.25 l 0.870655,5.9375 1.58923,4.02475 c 0.874075,2.21365 1.58923,4.29075 1.58923,4.6158 0,0.3251 1.14617,4.27955 2.547045,8.78775 1.400875,4.5082 3.270265,10.58735 4.154195,13.5092 0.88393,2.9219 2.38557,7 3.33698,9.0625 0.9514,2.0625 3.60111,8.25 5.88824,13.75 5.57281,13.4013 5.41681,13.1321 16.33252,28.18685 12.73017,17.5572 16.4269,21.87715 27.01539,31.56975 l 8.96187,8.2036 10.10063,6.7382 c 10.40829,6.9435 11.99582,8.1024 16.31609,11.91095 1.394,1.22885 3.93834,3.28885 5.65411,4.57775 4.56059,3.426 10.8684,10.5342 14.8935,16.78335 l 3.52351,5.4704 3.17057,3.0241 3.17057,3.0241 8.24864,4.11155 c 14.28301,7.11945 31.43709,13.0049 48.56114,16.66105 16.14071,3.44615 42.23418,7.0483 59.16012,8.1669 5.44631,0.35995 11.30863,0.7592 13.02738,0.8872 1.71875,0.12805 14.51563,0.1413 28.4375,0.0295 l 25.3125,-0.2034 10.625,-0.97595 z m 11.5625,-267.7505 c 15.9612,-0.6438 37.18413,-1.8134 41.5625,-2.2905 1.71875,-0.1873 8.46875,-0.73693 15,-1.22141 15.3107,-1.13574 31.32641,-2.62706 36.875,-3.43364 2.40625,-0.3498 6.625,-0.91631 9.375,-1.25892 2.75,-0.3426 7.67186,-1.05224 10.93751,-1.57697 3.2656,-0.52473 9.1253,-1.36977 13.02145,-1.87788 3.8962,-0.5081 8.11495,-1.19068 9.375,-1.51685 1.2601,-0.32617 3.97855,-0.78849 6.04105,-1.02739 2.0625,-0.2389 6.7031,-1.10824 10.3125,-1.93188 3.60935,-0.82364 8.3906,-1.89703 10.625,-2.38531 33.18185,-7.25127 56.6964,-16.53265 67.10345,-26.48623 l 3.041,-2.90846 1.48415,-3.125 c 1.87405,-3.9459 1.86395,-4.9742 -0.0864,-8.78354 l -1.5828,-3.09146 -2.94845,-2.35456 c -8.0021,-6.39031 -28.74345,-14.63464 -50.44845,-20.05239 -18.8069,-4.69436 -49.38865,-10.64337 -62.8125,-12.21882 -3.26565,-0.38326 -11.84375,-1.39066 -19.0625,-2.23868 -18.13542,-2.13043 -29.22793,-3.29217 -38.67075,-4.05006 l -8.04575,-0.64576 -1.91665,1.87389 c -1.05416,1.03063 -2.14451,1.87388 -2.42301,1.87388 -0.27849,0 -0.50635,0.42187 -0.50635,0.9375 0,0.51562 -0.23651,0.9375 -0.52558,0.9375 -0.28906,0 -1.81518,1.19531 -3.39137,2.65625 -5.58729,5.17874 -7.67901,7.0081 -10.5129,9.19427 -1.57704,1.21658 -3.54579,2.95941 -4.375,3.87294 -1.72342,1.89868 -39.66372,30.52654 -40.45661,30.52654 -0.28639,0 -2.18691,1.25813 -4.22338,2.79584 -2.03646,1.53772 -3.93793,2.80334 -4.22548,2.8125 -0.49275,0.0157 -1.5003,0.66038 -8.64185,5.52944 -1.60307,1.09297 -3.10653,1.98722 -3.34102,1.98722 -0.23449,0 -1.2432,0.58165 -2.24158,1.29255 l -1.81523,1.29257 0,1.08243 c 0,0.59535 0.35156,1.43401 0.78125,1.8637 0.42969,0.42968 0.80668,0.97812 0.83775,1.21875 0.10363,0.80246 2.0134,4.80517 2.54463,5.33333 0.28813,0.28646 0.54744,0.70834 0.57624,0.9375 0.0714,0.56767 1.40918,3.808 2.39083,5.79078 l 0.80408,1.62412 -1.70813,2.09287 -1.70812,2.09288 -1.44655,-3.09199 c -0.79561,-1.7006 -1.47425,-3.23262 -1.5081,-3.40449 -0.12313,-0.62521 -3.47235,-7.83792 -4.06306,-8.75 -1.26557,-1.9541 -2.50082,-5.20667 -2.50082,-6.58502 l 0,-1.43235 3.99487,-3.17882 c 2.19718,-1.74834 4.25646,-3.17881 4.57616,-3.17881 0.31972,0 1.68609,-0.83593 3.03639,-1.85761 1.3503,-1.02169 2.69865,-1.86544 2.99635,-1.875 0.2977,-0.01 1.91488,-1.02572 3.59375,-2.25812 1.67886,-1.2324 3.05248,-2.07141 3.05248,-1.86446 0,0.20695 1.81565,-1.05059 4.03478,-2.79454 2.21914,-1.74395 4.2582,-3.13958 4.53125,-3.10141 0.58988,0.0825 34.40365,-25.50017 35.05063,-26.5184 0.24522,-0.38591 1.71147,-1.65463 3.25834,-2.81937 1.54688,-1.16474 3.687,-2.98529 4.75583,-4.04566 1.06883,-1.06036 3.57304,-3.33418 5.56492,-5.05293 1.99188,-1.71875 5.1955,-4.67943 7.11917,-6.5793 1.92367,-1.89985 4.72564,-4.41037 6.22661,-5.57891 l 2.72903,-2.12462 2.73617,0.73181 c 1.50489,0.40251 6.8862,1.03436 11.95847,1.40413 5.07227,0.36977 12.5973,1.08596 16.7223,1.59154 4.125,0.50557 10.03125,1.19364 13.12501,1.52903 3.09375,0.33539 7.59375,0.90419 10,1.264 2.40625,0.35981 8.4531,1.18414 13.4375,1.83184 19.04725,2.4751 50.45485,8.62975 65.3125,12.79865 3.09375,0.86808 6.3839,1.74916 7.3114,1.95798 l 1.68645,0.37967 4.2999,-4.33419 c 2.36495,-2.3838 5.25065,-5.72073 6.4127,-7.41541 1.162,-1.69467 2.6301,-3.64095 3.26245,-4.32507 0.6323,-0.68412 3.01455,-4.90287 5.29385,-9.375 l 4.14415,-8.13115 1.49845,-5 c 1.76615,-5.89342 2.3209,-8.49626 3.59655,-16.875 l 0.95155,-6.25 -0.2696,-10.3125 c -0.14825,-5.67188 -0.40185,-10.875 -0.5635,-11.5625 -0.16165,-0.6875 -0.47635,-2.83228 -0.69925,-4.76618 -0.22295,-1.9339 -0.65735,-4.39484 -0.96535,-5.46875 -0.308,-1.07392 -0.4224,-1.95257 -0.25425,-1.95257 0.1682,0 0.0864,-0.35157 -0.1818,-0.78125 -0.26815,-0.42969 -0.57065,-1.34375 -0.6723,-2.03125 -0.278,-1.88095 -10.19265,-31.4765 -11.1764,-33.36177 -0.47015,-0.90103 -0.85655,-1.87234 -0.85865,-2.15848 -0.013,-1.78094 -9.66835,-22.28257 -15.64945,-33.22975 -1.6903,-3.09375 -3.4209,-6.32813 -3.84575,-7.1875 -0.4249,-0.85938 -1.41625,-2.35752 -2.20305,-3.32921 -0.78685,-0.97168 -1.4306,-2.05621 -1.4306,-2.41005 0,-0.35385 -0.84375,-1.70869 -1.875,-3.01074 -1.03125,-1.30206 -1.875,-2.63803 -1.875,-2.96882 0,-0.33078 -0.93415,-1.83719 -2.07585,-3.34756 -1.14175,-1.51037 -2.23195,-3.1706 -2.42265,-3.68941 -0.48325,-1.31447 -12.97125,-17.75921 -13.6817,-18.01664 -0.31865,-0.11545 -1.90765,-1.93615 -3.53115,-4.04598 -3.38735,-4.40217 -5.6663,-6.93309 -11.5321,-12.8072 -7.5253,-7.53597 -15.1248,-14.49939 -15.8238,-14.49939 -0.16925,0 -0.84075,-0.49219 -1.49215,-1.09375 -2.35015,-2.17033 -4.66355,-3.99917 -7.49455,-5.92484 -1.58595,-1.07878 -3.0242,-2.15474 -3.19605,-2.39102 -0.5389,-0.74087 -13.8294,-8.44354 -19.0625,-11.04792 -7.18286,-3.57471 -16.32165,-6.23171 -28.75001,-8.35874 -9.53014,-1.63101 -32.68257,-1.76788 -44.6875,-0.26417 -1.20312,0.1507 -3.73437,0.41597 -5.625,0.58948 -1.89062,0.17351 -6.95312,1.01522 -11.25,1.87046 -4.29687,0.85524 -8.79687,1.71951 -10,1.92061 -1.20312,0.2011 -3.03125,0.62713 -4.0625,0.94672 -1.03125,0.3196 -2.71875,0.70918 -3.75,0.86573 -1.03125,0.15656 -1.875,0.3293 -1.875,0.38386 0,0.0546 -0.5625,0.19754 -1.25,0.31771 -4.28255,0.74859 -34.63185,10.75401 -40.1162,13.22534 -1.78266,0.80329 -3.47016,1.46683 -3.75,1.47453 -0.27984,0.008 -2.1963,0.84515 -4.2588,1.861 -2.0625,1.01584 -3.96893,1.85329 -4.23653,1.86099 -1.13146,0.0326 -20.38379,9.32411 -21.85722,10.5487 -0.60156,0.49997 -1.09375,0.74822 -1.09375,0.55166 0,-0.19656 -1.19531,0.30562 -2.65625,1.11597 -1.46094,0.81034 -4.0625,2.20571 -5.78125,3.10083 -1.71875,0.89511 -4.25,2.29876 -5.625,3.11921 -1.375,0.82046 -3.34375,1.93496 -4.375,2.47667 -1.03125,0.54171 -3,1.67245 -4.375,2.51275 -1.375,0.84031 -3.20312,1.88203 -4.0625,2.31494 -0.85937,0.43291 -2.35752,1.43088 -3.3292,2.2177 -0.97168,0.78682 -2.04325,1.43058 -2.38125,1.43058 -0.33799,0 -1.90374,0.98437 -3.47942,2.1875 -1.57568,1.20312 -3.12705,2.1875 -3.44748,2.1875 -0.32042,0 -2.18264,1.19531 -4.13825,2.65625 -1.95562,1.46093 -4.25457,3.05108 -5.10879,3.53367 -2.29778,1.29811 -34.28301,25.66439 -34.83247,26.5353 -0.25885,0.41028 -1.73626,1.70413 -3.28314,2.8752 -1.54687,1.17106 -3.55452,2.85098 -4.46143,3.73315 -0.90692,0.88216 -4.11334,3.85393 -7.12538,6.60393 -6.70806,6.12447 -22.02699,21.42739 -26.24794,26.22052 -1.70652,1.93784 -4.22775,4.744 -5.60275,6.23593 -1.375,1.49192 -3.625,4.06515 -5,5.7183 -1.375,1.65313 -2.99219,3.51354 -3.59375,4.13423 -0.60156,0.62069 -1.09375,1.267 -1.09375,1.43626 0,0.31274 -1.6619,2.35659 -4.23505,5.20837 -0.7824,0.86713 -2.00065,2.51198 -2.70722,3.65524 -0.70657,1.14325 -1.55958,2.07865 -1.89559,2.07865 l -0.61091,0 0.38627,0.625 0.38627,0.625 -0.60449,0 c -0.33248,0 -1.40376,1.26512 -2.38064,2.81138 -0.97688,1.54626 -1.98708,2.81189 -2.24489,2.8125 -0.25781,5e-4 -0.46875,0.42299 -0.46875,0.93862 0,0.51562 -0.21094,0.938 -0.46875,0.93862 -0.25781,5e-4 -1.29482,1.33655 -2.30446,2.96875 -1.00964,1.63219 -3.14196,4.23325 -4.73849,5.78013 -1.59652,1.54687 -3.81527,4.43097 -4.93054,6.40912 -1.11528,1.97813 -2.36521,3.94688 -2.77763,4.375 -2.13606,2.21732 -16.9202,30.82138 -18.80632,36.3861 -0.57934,1.70925 -1.85969,5.08425 -2.84522,7.5 -2.58754,6.34263 -6.65708,19.91114 -8.15939,27.20478 -0.38942,1.89062 -0.95203,4.42187 -1.25026,5.625 -1.30461,5.26323 -1.968,13.57601 -1.93263,24.21726 l 0.0296,8.90477 1.02678,4.09415 c 0.56472,2.25179 1.08938,4.43214 1.16591,4.84524 0.84168,4.54352 5.14535,19.04663 5.97223,20.12608 0.26333,0.34375 0.97699,2.17187 1.58592,4.0625 0.60892,1.89062 1.64991,4.6082 2.31332,6.03906 l 1.20618,2.60156 3.23812,0.62736 c 1.78098,0.34506 6.05063,1.20186 9.48813,1.90402 9.36999,1.91397 13.02156,2.57727 13.20091,2.39792 0.0889,-0.0889 -0.90266,-1.56132 -2.20347,-3.27203 l -2.36511,-3.11039 -0.95585,-3.125 c -0.52571,-1.71875 -0.9865,-3.87703 -1.02397,-4.79618 -0.0963,-2.36274 1.47458,-6.49127 3.53702,-9.29576 l 1.7589,-2.39172 17.77579,-13.47807 c 9.77668,-7.41293 17.85555,-13.71685 17.95305,-14.0087 0.0975,-0.29186 -5.77898,-8.37729 -13.05882,-17.96762 -7.27985,-9.59032 -13.78352,-18.40492 -14.45262,-19.58798 -0.66908,-1.18307 -1.4365,-3.5426 -1.70536,-5.24341 l -0.48884,-3.09238 0.77493,-2.93762 c 0.69974,-2.6526 1.85019,-4.47799 4.72661,-7.49961 1.46843,-1.54255 25.84576,-19.91205 26.27453,-19.79911 0.20497,0.054 0.77897,-0.23903 1.27555,-0.65115 1.02457,-0.85032 4.15878,-1.50015 7.4731,-1.54945 l 2.24635,-0.0334 2.75365,1.24685 c 4.20573,1.90433 6.26744,4.18778 19.31993,21.39782 6.64806,8.76563 12.55281,16.54667 13.12167,17.29122 l 1.0343,1.3537 18.38888,-13.94869 c 10.11388,-7.67178 18.50667,-13.83502 18.65065,-13.69609 0.14398,0.13893 0.70649,-0.14866 1.25,-0.63907 l 0.98822,-0.89165 3.65083,-0.42495 3.65084,-0.42495 2.78664,0.78021 2.78664,0.78021 3.02615,2.87878 c 1.66437,1.58333 7.12159,8.28708 12.12713,14.89721 l 9.101,12.01843 1.0214,2.98157 1.0214,2.98157 -0.4156,3.75 -0.41558,3.75 -1.25563,2.1875 -1.25563,2.1875 -19.00642,14.375 c -10.45354,7.90625 -19.00739,14.59109 -19.00855,14.8552 -10e-4,0.2641 5.7608,8.04653 12.80436,17.29428 7.04357,9.24775 13.70248,18.44671 14.79758,20.44214 l 1.99111,3.62806 -0.0224,4.08694 -0.0224,4.08695 -1.28693,2.49071 c -0.70781,1.3699 -1.94258,3.05325 -2.74393,3.74075 l -1.45701,1.25 11.875,0.346 c 16.14637,0.47045 75.63866,0.1119 92.1875,-0.5556 z m 2.8125,-164.46489 c -3.61803,-0.77229 -10.66875,-4.04663 -15,-6.96598 l -3.75,-2.52758 -3.28772,-4.47849 c -6.00657,-8.1821 -8.33172,-14.75502 -8.32754,-23.541 l 0.002,-4.0625 0.95488,-3.5934 c 0.52517,-1.97637 1.93957,-5.54876 3.1431,-7.93864 l 2.18822,-4.34524 4.22607,-4.35472 c 2.32432,-2.3951 5.28073,-4.9399 6.5698,-5.65511 1.28906,-0.71522 3.25781,-1.8182 4.375,-2.45109 4.4879,-2.54238 9.75184,-3.55617 18.09656,-3.48526 l 6.06531,0.0516 6.59713,3.2075 c 3.62842,1.76412 7.29747,3.90783 8.15344,4.7638 0.85597,0.85597 1.55631,1.3994 1.55631,1.20762 0,-0.57052 6.90109,8.53637 8.0681,10.64693 3.1127,5.62931 4.1386,10.37227 4.04173,18.68585 l -0.064,5.48979 -1.07889,2.63521 c -2.32825,5.68682 -4.74425,10.47217 -6.10434,12.09086 -2.48597,2.95865 -3.2678,3.66334 -8.33876,7.5161 l -4.96138,3.76952 -3.46097,1.28967 c -1.90352,0.70931 -4.43477,1.46862 -5.625,1.68735 -3.86523,0.71033 -11.47747,0.90405 -14.03903,0.35727 z m 14.375,-15.20653 c 4.75915,-1.58087 8.34328,-4.12027 10.3125,-7.30651 0.8498,-1.37501 1.73255,-2.50001 1.96167,-2.50001 0.22911,0 1.02466,-2.00195 1.76786,-4.44878 l 1.35127,-4.44878 -0.12916,-4.14497 c -0.071,-2.27974 -0.34655,-4.42622 -0.61225,-4.76997 -0.2657,-0.34375 -0.53093,-0.90625 -0.5894,-1.25 -0.0584,-0.34375 -0.76224,-2.03125 -1.56394,-3.75 -2.11678,-4.53813 -6.22455,-7.98953 -12.22182,-10.26895 l -3.40173,-1.29292 -4.20563,-3.2e-4 -4.20562,-3.1e-4 -4.0159,1.31832 -4.0159,1.31833 -3.07652,2.90042 c -3.88821,3.66565 -4.84999,5.16299 -6.45318,10.04653 l -1.29376,3.94102 0.12548,4.45644 c 0.069,2.45104 0.29343,4.73769 0.49869,5.08144 0.20526,0.34375 0.39459,0.76562 0.42075,0.9375 0.0261,0.17187 0.52264,1.40154 1.10332,2.73257 0.58067,1.33105 1.05577,2.61523 1.05577,2.85376 0,0.50718 3.69,3.84079 6.34048,5.72809 1.01261,0.72105 3.44556,1.96776 5.40657,2.77048 l 3.56545,1.45948 4.0625,-0.0586 4.0625,-0.0586 3.75,-1.24565 z M 260,574.79085 c 0,-0.658 -11.29641,-15.287 -11.80452,-15.287 -0.28381,0 -4.38702,2.95312 -9.11824,6.5625 l -8.60224,6.5625 1.79375,0.0169 c 1.92949,0.0182 11.31695,0.99381 17.41875,1.81026 4.56191,0.6104 10.3125,0.7971 10.3125,0.3348 z m -116.132,-19.1942 c -0.69396,-1.35975 -2.06472,-4.66667 -2.33126,-5.62405 -0.0718,-0.25782 -0.20081,-0.60938 -0.28674,-0.78125 -0.0859,-0.17188 -0.21497,-0.52344 -0.28675,-0.78125 -0.0718,-0.25782 -0.45848,-1.2605 -0.85937,-2.22819 -0.40088,-0.96769 -0.72888,-1.86344 -0.72888,-1.99056 0,-0.12712 -0.32799,-1.02288 -0.72888,-1.99057 -0.40089,-0.96769 -0.7876,-1.97037 -0.85938,-2.22818 -0.0718,-0.25782 -0.18716,-0.53907 -0.25644,-0.625 -0.0693,-0.0859 -0.22251,-0.66441 -0.34053,-1.28551 -0.11803,-0.62109 -0.77878,-3.01171 -1.46835,-5.3125 -0.68957,-2.30078 -1.3907,-5.02699 -1.55806,-6.05824 -0.16737,-1.03125 -0.71423,-3.58333 -1.21525,-5.6713 l -0.91095,-3.79629 0.0752,-10.08279 0.0752,-10.0828 -1.5625,0.38597 c -6.15641,1.52073 -23.9498,8.55061 -30.53357,12.06334 -5.02902,2.68319 -9.45074,6.17649 -11.489135,9.07677 l -1.75838,2.50187 -0.376635,2.32092 -0.376635,2.32092 1.695145,3.46475 1.695145,3.46475 4.27352,3.59724 c 8.078675,6.80022 23.659255,13.87198 41.245545,18.72062 1.89062,0.52125 4.70312,1.29782 6.25,1.7257 1.54687,0.42788 2.93011,0.67064 3.07385,0.53946 0.14375,-0.13118 -0.0614,-0.87091 -0.45585,-1.64383 z"
       style="fill:#2b2b2b" />
    <flowRoot
       xml:space="preserve"
       id="flowRoot3613"
       style="fill:black;stroke:none;stroke-opacity:1;stroke-width:1px;stroke-linejoin:miter;stroke-linecap:butt;fill-opacity:1;font-family:sans-serif;font-style:normal;font-weight:normal;font-size:40px;line-height:125%;letter-spacing:0px;word-spacing:0px"><flowRegion
         id="flowRegion3615"><rect
           id="rect3617"
           width="137.50256"
           height="86.400078"
           x="191.2392"
           y="151.82141" /></flowRegion><flowPara
         id="flowPara3619" /></flowRoot>    <g
       style="font-style:normal;font-variant:normal;font-weight:normal;font-stretch:normal;font-size:49.61303711px;line-height:125%;font-family:'Karmatic Arcade';-inkscape-font-specification:'Karmatic Arcade, Normal';text-align:start;letter-spacing:0px;word-spacing:0px;writing-mode:lr-tb;text-anchor:start;fill:#2b2b2b;fill-opacity:1;stroke:none;stroke-width:1px;stroke-linecap:butt;stroke-linejoin:miter;stroke-opacity:1"
       id="text3621">
      <path
         d="m 119.53758,285.39524 0,-4.84503 4.77234,0 0,4.84503 -4.77234,0 z m 0,-4.84503 0,-4.86925 4.77234,0 0,4.86925 -4.77234,0 z m 0,-4.86925 0,-4.84502 4.77234,0 0,4.84502 -4.77234,0 z m 0,-4.84502 0,-4.86925 4.77234,0 0,4.86925 -4.77234,0 z m 0,-4.86925 0,-4.86925 4.77234,0 0,4.86925 -4.77234,0 z m 0,-4.86925 0,-4.74812 4.77234,0 0,4.74812 -4.77234,0 z m -4.84503,-4.74812 0,-4.86925 4.84503,0 0,4.86925 -4.84503,0 z m 0,33.91516 0,-4.86924 4.84503,0 0,4.86924 -4.84503,0 z m 0,-4.86924 0,-4.84503 4.84503,0 0,4.84503 -4.84503,0 z m 0,-4.84503 0,-4.86925 4.84503,0 0,4.86925 -4.84503,0 z m 0,-4.86925 0,-4.84502 4.84503,0 0,4.84502 -4.84503,0 z m 0,-4.84502 0,-4.86925 4.84503,0 0,4.86925 -4.84503,0 z m 0,-4.86925 0,-4.86925 4.84503,0 0,4.86925 -4.84503,0 z m 0,-4.86925 0,-4.74812 4.84503,0 0,4.74812 -4.84503,0 z m -4.86925,-4.74812 0,-4.86925 4.86925,0 0,4.86925 -4.86925,0 z m 0,38.66329 0,-4.74813 4.86925,0 0,4.74813 -4.86925,0 z m 0,-4.74813 0,-4.86924 4.86925,0 0,4.86924 -4.86925,0 z m 0,-4.86924 0,-4.84503 4.86925,0 0,4.84503 -4.86925,0 z m 0,-4.84503 0,-4.86925 4.86925,0 0,4.86925 -4.86925,0 z m -4.84502,-24.20089 0,-4.86925 4.84502,0 0,4.86925 -4.84502,0 z m 4.84502,38.66329 0,4.79657 -4.84502,0 0,-4.79657 4.84502,0 z m -4.84502,0 0,-4.74813 4.84502,0 0,4.74813 -4.84502,0 z m 0,-4.74813 0,-4.86924 4.84502,0 0,4.86924 -4.84502,0 z m 0,-4.86924 0,-4.84503 4.84502,0 0,4.84503 -4.84502,0 z m -4.86925,-29.04592 0,-4.86925 4.86925,0 0,4.86925 -4.86925,0 z m 4.86925,38.66329 0,4.79657 -4.86925,0 0,-4.79657 4.86925,0 z m -4.86925,0 0,-4.74813 4.86925,0 0,4.74813 -4.86925,0 z m 0,-4.74813 0,-4.86924 4.86925,0 0,4.86924 -4.86925,0 z m 0,-14.58352 0,-4.84502 4.86925,0 0,4.84502 -4.86925,0 z m 0,-4.84502 0,-4.86925 4.86925,0 0,4.86925 -4.86925,0 z m 0,-4.86925 0,-4.86925 4.86925,0 0,4.86925 -4.86925,0 z m 0,-4.86925 0,-4.74812 4.86925,0 0,4.74812 -4.86925,0 z m 0,33.91517 0,4.79657 -4.869246,0 0,-4.79657 4.869246,0 z m -4.869246,0 0,-4.74813 4.869246,0 0,4.74813 -4.869246,0 z m 0,-14.4624 0,-4.86925 4.869246,0 0,4.86925 -4.869246,0 z m 0,-4.86925 0,-4.84502 4.869246,0 0,4.84502 -4.869246,0 z m 0,-4.84502 0,-4.86925 4.869246,0 0,4.86925 -4.869246,0 z m 0,-4.86925 0,-4.86925 4.869246,0 0,4.86925 -4.869246,0 z m 0,-4.86925 0,-4.74812 4.869246,0 0,4.74812 -4.869246,0 z m -4.748122,-4.74812 0,-4.86925 4.748122,0 0,4.86925 -4.748122,0 z m 0,38.66329 0,-4.74813 4.748122,0 0,4.74813 -4.748122,0 z m 0,-4.74813 0,-4.86924 4.748122,0 0,4.86924 -4.748122,0 z m 0,-14.58352 0,-4.84502 4.748122,0 0,4.84502 -4.748122,0 z m 0,-4.84502 0,-4.86925 4.748122,0 0,4.86925 -4.748122,0 z m 0,-4.86925 0,-4.86925 4.748122,0 0,4.86925 -4.748122,0 z m 0,-4.86925 0,-4.74812 4.748122,0 0,4.74812 -4.748122,0 z m -4.869248,-4.74812 0,-4.86925 4.869248,0 0,4.86925 -4.869248,0 z m 0,33.91516 0,-4.86924 4.869248,0 0,4.86924 -4.869248,0 z m 0,-4.86924 0,-4.84503 4.869248,0 0,4.84503 -4.869248,0 z m -4.845024,-29.04592 0,-4.86925 4.845024,0 0,4.86925 -4.845024,0 z m 0,29.04592 0,-4.84503 4.845024,0 0,4.84503 -4.845024,0 z m 0,-4.84503 0,-4.86925 4.845024,0 0,4.86925 -4.845024,0 z m -4.869248,-24.20089 0,-4.86925 4.869248,0 0,4.86925 -4.869248,0 z m 0,24.20089 0,-4.86925 4.869248,0 0,4.86925 -4.869248,0 z m 0,-4.86925 0,-4.84502 4.869248,0 0,4.84502 -4.869248,0 z m 0,-4.84502 0,-4.86925 4.869248,0 0,4.86925 -4.869248,0 z m 0,-4.86925 0,-4.86925 4.869248,0 0,4.86925 -4.869248,0 z m 0,-4.86925 0,-4.74812 4.869248,0 0,4.74812 -4.869248,0 z"
         style=""
         id="path4168" />
      <path
         d="m 167.91513,295.01261 0,4.79657 -4.77235,0 0,-4.79657 4.77235,0 z m -4.77235,0 0,-4.74813 4.77235,0 0,4.74813 -4.77235,0 z m 0,-4.74813 0,-4.86924 4.77235,0 0,4.86924 -4.77235,0 z m 0,-4.86924 0,-4.84503 4.77235,0 0,4.84503 -4.77235,0 z m 0,-4.84503 0,-4.86925 4.77235,0 0,4.86925 -4.77235,0 z m 0,-4.86925 0,-4.84502 4.77235,0 0,4.84502 -4.77235,0 z m 0,-4.84502 0,-4.86925 4.77235,0 0,4.86925 -4.77235,0 z m 0,-4.86925 0,-4.86925 4.77235,0 0,4.86925 -4.77235,0 z m 0,29.04592 0,4.79657 -4.84502,0 0,-4.79657 4.84502,0 z m -4.84502,0 0,-4.74813 4.84502,0 0,4.74813 -4.84502,0 z m 0,-4.74813 0,-4.86924 4.84502,0 0,4.86924 -4.84502,0 z m 0,-4.86924 0,-4.84503 4.84502,0 0,4.84503 -4.84502,0 z m 0,-4.84503 0,-4.86925 4.84502,0 0,4.86925 -4.84502,0 z m 0,-4.86925 0,-4.84502 4.84502,0 0,4.84502 -4.84502,0 z m 0,-4.84502 0,-4.86925 4.84502,0 0,4.86925 -4.84502,0 z m 0,-4.86925 0,-4.86925 4.84502,0 0,4.86925 -4.84502,0 z m 0,-4.86925 0,-4.74812 4.84502,0 0,4.74812 -4.84502,0 z m -4.86925,-4.74812 0,-4.86925 4.86925,0 0,4.86925 -4.86925,0 z m 4.86925,38.66329 0,4.79657 -4.86925,0 0,-4.79657 4.86925,0 z m -4.86925,0 0,-4.74813 4.86925,0 0,4.74813 -4.86925,0 z m 0,-24.17667 0,-4.86925 4.86925,0 0,4.86925 -4.86925,0 z m 0,-9.7385 0,-4.74812 4.86925,0 0,4.74812 -4.86925,0 z m -4.84502,-4.74812 0,-4.86925 4.84502,0 0,4.86925 -4.84502,0 z m 4.84502,38.66329 0,4.79657 -4.84502,0 0,-4.79657 4.84502,0 z m -4.84502,0 0,-4.74813 4.84502,0 0,4.74813 -4.84502,0 z m 0,-4.74813 0,-4.86924 4.84502,0 0,4.86924 -4.84502,0 z m 0,-19.42854 0,-4.86925 4.84502,0 0,4.86925 -4.84502,0 z m -4.86925,-14.48662 0,-4.86925 4.86925,0 0,4.86925 -4.86925,0 z m 4.86925,38.66329 0,4.79657 -4.86925,0 0,-4.79657 4.86925,0 z m -4.86925,0 0,-4.74813 4.86925,0 0,4.74813 -4.86925,0 z m 0,-9.61737 0,-4.84503 4.86925,0 0,4.84503 -4.86925,0 z m 0,-4.84503 0,-4.86925 4.86925,0 0,4.86925 -4.86925,0 z m 0,-9.71427 0,-4.86925 4.86925,0 0,4.86925 -4.86925,0 z m 0,-4.86925 0,-4.86925 4.86925,0 0,4.86925 -4.86925,0 z m -4.86925,-9.61737 0,-4.86925 4.86925,0 0,4.86925 -4.86925,0 z m 4.86925,38.66329 0,4.79657 -4.86925,0 0,-4.79657 4.86925,0 z m -4.86925,0 0,-4.74813 4.86925,0 0,4.74813 -4.86925,0 z m 0,-9.61737 0,-4.84503 4.86925,0 0,4.84503 -4.86925,0 z m 0,-4.84503 0,-4.86925 4.86925,0 0,4.86925 -4.86925,0 z m 0,-4.86925 0,-4.84502 4.86925,0 0,4.84502 -4.86925,0 z m 0,-4.84502 0,-4.86925 4.86925,0 0,4.86925 -4.86925,0 z m 0,-4.86925 0,-4.86925 4.86925,0 0,4.86925 -4.86925,0 z m -4.74812,-9.61737 0,-4.86925 4.74812,0 0,4.86925 -4.74812,0 z m 4.74812,38.66329 0,4.79657 -4.74812,0 0,-4.79657 4.74812,0 z m -4.74812,0 0,-4.74813 4.74812,0 0,4.74813 -4.74812,0 z m 0,-9.61737 0,-4.84503 4.74812,0 0,4.84503 -4.74812,0 z m 0,-4.84503 0,-4.86925 4.74812,0 0,4.86925 -4.74812,0 z m 0,-4.86925 0,-4.84502 4.74812,0 0,4.84502 -4.74812,0 z m 0,-4.84502 0,-4.86925 4.74812,0 0,4.86925 -4.74812,0 z m 0,-4.86925 0,-4.86925 4.74812,0 0,4.86925 -4.74812,0 z m -4.86925,-9.61737 0,-4.86925 4.86925,0 0,4.86925 -4.86925,0 z m 4.86925,38.66329 0,4.79657 -4.86925,0 0,-4.79657 4.86925,0 z m -4.86925,0 0,-4.74813 4.86925,0 0,4.74813 -4.86925,0 z m -4.84502,-38.66329 0,-4.86925 4.84502,0 0,4.86925 -4.84502,0 z m 0,38.66329 0,-4.74813 4.84502,0 0,4.74813 -4.84502,0 z m 0,-4.74813 0,-4.86924 4.84502,0 0,4.86924 -4.84502,0 z m 0,-29.16704 0,-4.74812 4.84502,0 0,4.74812 -4.84502,0 z m -4.86925,29.16704 0,-4.86924 4.86925,0 0,4.86924 -4.86925,0 z m 0,-4.86924 0,-4.84503 4.86925,0 0,4.84503 -4.86925,0 z m 0,-4.84503 0,-4.86925 4.86925,0 0,4.86925 -4.86925,0 z m 0,-4.86925 0,-4.84502 4.86925,0 0,4.84502 -4.86925,0 z m 0,-4.84502 0,-4.86925 4.86925,0 0,4.86925 -4.86925,0 z m 0,-4.86925 0,-4.86925 4.86925,0 0,4.86925 -4.86925,0 z m 0,-4.86925 0,-4.74812 4.86925,0 0,4.74812 -4.86925,0 z"
         style=""
         id="path4170" />
      <path
         d="m 206.74799,295.01261 0,-4.74813 4.77235,0 0,4.74813 -4.77235,0 z m 0,-4.74813 0,-4.86924 4.77235,0 0,4.86924 -4.77235,0 z m 0,-4.86924 0,-4.84503 4.77235,0 0,4.84503 -4.77235,0 z m 0,-4.84503 0,-4.86925 4.77235,0 0,4.86925 -4.77235,0 z m 0,-4.86925 0,-4.84502 4.77235,0 0,4.84502 -4.77235,0 z m 0,-4.84502 0,-4.86925 4.77235,0 0,4.86925 -4.77235,0 z m 0,-4.86925 0,-4.86925 4.77235,0 0,4.86925 -4.77235,0 z m 0,29.04592 0,4.79657 -4.84502,0 0,-4.79657 4.84502,0 z m -4.84502,0 0,-4.74813 4.84502,0 0,4.74813 -4.84502,0 z m 0,-4.74813 0,-4.86924 4.84502,0 0,4.86924 -4.84502,0 z m 0,-4.86924 0,-4.84503 4.84502,0 0,4.84503 -4.84502,0 z m 0,-4.84503 0,-4.86925 4.84502,0 0,4.86925 -4.84502,0 z m 0,-4.86925 0,-4.84502 4.84502,0 0,4.84502 -4.84502,0 z m 0,-4.84502 0,-4.86925 4.84502,0 0,4.86925 -4.84502,0 z m 0,-4.86925 0,-4.86925 4.84502,0 0,4.86925 -4.84502,0 z m 0,-4.86925 0,-4.74812 4.84502,0 0,4.74812 -4.84502,0 z m -4.86925,-4.74812 0,-4.86925 4.86925,0 0,4.86925 -4.86925,0 z m 4.86925,38.66329 0,4.79657 -4.86925,0 0,-4.79657 4.86925,0 z m -4.86925,0 0,-4.74813 4.86925,0 0,4.74813 -4.86925,0 z m 0,-4.74813 0,-4.86924 4.86925,0 0,4.86924 -4.86925,0 z m 0,-29.16704 0,-4.74812 4.86925,0 0,4.74812 -4.86925,0 z m -4.84502,-4.74812 0,-4.86925 4.84502,0 0,4.86925 -4.84502,0 z m 4.84502,38.66329 0,4.79657 -4.84502,0 0,-4.79657 4.84502,0 z m -4.84502,0 0,-4.74813 4.84502,0 0,4.74813 -4.84502,0 z m -4.86925,-38.66329 0,-4.86925 4.86925,0 0,4.86925 -4.86925,0 z m 4.86925,38.66329 0,4.79657 -4.86925,0 0,-4.79657 4.86925,0 z m -4.86925,0 0,-4.74813 4.86925,0 0,4.74813 -4.86925,0 z m 0,-9.61737 0,-4.84503 4.86925,0 0,4.84503 -4.86925,0 z m 0,-4.84503 0,-4.86925 4.86925,0 0,4.86925 -4.86925,0 z m 0,-4.86925 0,-4.84502 4.86925,0 0,4.84502 -4.86925,0 z m 0,-4.84502 0,-4.86925 4.86925,0 0,4.86925 -4.86925,0 z m 0,-4.86925 0,-4.86925 4.86925,0 0,4.86925 -4.86925,0 z m -4.86925,-9.61737 0,-4.86925 4.86925,0 0,4.86925 -4.86925,0 z m 4.86925,38.66329 0,4.79657 -4.86925,0 0,-4.79657 4.86925,0 z m -4.86925,0 0,-4.74813 4.86925,0 0,4.74813 -4.86925,0 z m 0,-9.61737 0,-4.84503 4.86925,0 0,4.84503 -4.86925,0 z m 0,-4.84503 0,-4.86925 4.86925,0 0,4.86925 -4.86925,0 z m 0,-4.86925 0,-4.84502 4.86925,0 0,4.84502 -4.86925,0 z m 0,-4.84502 0,-4.86925 4.86925,0 0,4.86925 -4.86925,0 z m 0,-4.86925 0,-4.86925 4.86925,0 0,4.86925 -4.86925,0 z m -4.74812,-9.61737 0,-4.86925 4.74812,0 0,4.86925 -4.74812,0 z m 4.74812,38.66329 0,4.79657 -4.74812,0 0,-4.79657 4.74812,0 z m -4.74812,0 0,-4.74813 4.74812,0 0,4.74813 -4.74812,0 z m 0,-9.61737 0,-4.84503 4.74812,0 0,4.84503 -4.74812,0 z m 0,-4.84503 0,-4.86925 4.74812,0 0,4.86925 -4.74812,0 z m 0,-4.86925 0,-4.84502 4.74812,0 0,4.84502 -4.74812,0 z m 0,-4.84502 0,-4.86925 4.74812,0 0,4.86925 -4.74812,0 z m 0,-4.86925 0,-4.86925 4.74812,0 0,4.86925 -4.74812,0 z m -4.86925,-9.61737 0,-4.86925 4.86925,0 0,4.86925 -4.86925,0 z m 4.86925,38.66329 0,4.79657 -4.86925,0 0,-4.79657 4.86925,0 z m -4.86925,0 0,-4.74813 4.86925,0 0,4.74813 -4.86925,0 z m -4.84502,-38.66329 0,-4.86925 4.84502,0 0,4.86925 -4.84502,0 z m 0,38.66329 0,-4.74813 4.84502,0 0,4.74813 -4.84502,0 z m 0,-4.74813 0,-4.86924 4.84502,0 0,4.86924 -4.84502,0 z m 0,-29.16704 0,-4.74812 4.84502,0 0,4.74812 -4.84502,0 z m -4.86925,29.16704 0,-4.86924 4.86925,0 0,4.86924 -4.86925,0 z m 0,-4.86924 0,-4.84503 4.86925,0 0,4.84503 -4.86925,0 z m 0,-4.84503 0,-4.86925 4.86925,0 0,4.86925 -4.86925,0 z m 0,-4.86925 0,-4.84502 4.86925,0 0,4.84502 -4.86925,0 z m 0,-4.84502 0,-4.86925 4.86925,0 0,4.86925 -4.86925,0 z m 0,-4.86925 0,-4.86925 4.86925,0 0,4.86925 -4.86925,0 z m 0,-4.86925 0,-4.74812 4.86925,0 0,4.74812 -4.86925,0 z"
         style=""
         id="path4172" />
      <path
         d="m 220.01427,283.57078 0,-3.34761 3.34761,0 0,3.34761 -3.34761,0 z m 0,-3.34761 0,-3.33095 3.34761,0 0,3.33095 -3.34761,0 z m 0,-3.33095 0,-3.34761 3.34761,0 0,3.34761 -3.34761,0 z m 0,-3.34761 0,-3.34761 3.34761,0 0,3.34761 -3.34761,0 z m 0,-3.34761 0,-3.26433 3.34761,0 0,3.26433 -3.34761,0 z m -3.26433,-3.26433 0,-3.34761 3.26433,0 0,3.34761 -3.26433,0 z m 0,16.63811 0,-3.34761 3.26433,0 0,3.34761 -3.26433,0 z m 0,-3.34761 0,-3.33095 3.26433,0 0,3.33095 -3.26433,0 z m 0,-3.33095 0,-3.34761 3.26433,0 0,3.34761 -3.26433,0 z m 0,-3.34761 0,-3.34761 3.26433,0 0,3.34761 -3.26433,0 z m 0,-3.34761 0,-3.26433 3.26433,0 0,3.26433 -3.26433,0 z m -3.34761,-3.26433 0,-3.34761 3.34761,0 0,3.34761 -3.34761,0 z m 0,16.63811 0,-3.34761 3.34761,0 0,3.34761 -3.34761,0 z m 0,-3.34761 0,-3.33095 3.34761,0 0,3.33095 -3.34761,0 z m -3.33095,-13.2905 0,-3.34761 3.33095,0 0,3.34761 -3.33095,0 z m 0,16.63811 0,-3.34761 3.33095,0 0,3.34761 -3.33095,0 z m 0,-3.34761 0,-3.33095 3.33095,0 0,3.33095 -3.33095,0 z m -3.34761,-13.2905 0,-3.34761 3.34761,0 0,3.34761 -3.34761,0 z m 0,13.2905 0,-3.33095 3.34761,0 0,3.33095 -3.34761,0 z m 0,-3.33095 0,-3.34761 3.34761,0 0,3.34761 -3.34761,0 z m 0,-3.34761 0,-3.34761 3.34761,0 0,3.34761 -3.34761,0 z m 0,-3.34761 0,-3.26433 3.34761,0 0,3.26433 -3.34761,0 z"
         style="font-style:normal;font-variant:normal;font-weight:normal;font-stretch:normal;font-size:34.10896301px;line-height:125%;font-family:'Karmatic Arcade';-inkscape-font-specification:'Karmatic Arcade, Normal';text-align:start;writing-mode:lr-tb;text-anchor:start;fill:#2b2b2b;fill-opacity:1"
         id="path4174" />
      <path
         d="m 250.04281,293.51368 0,-3.26434 3.28099,0 0,3.26434 -3.28099,0 z m 0,-3.26434 0,-3.3476 3.28099,0 0,3.3476 -3.28099,0 z m 0,-3.3476 0,-3.33096 3.28099,0 0,3.33096 -3.28099,0 z m 0,-3.33096 0,-3.34761 3.28099,0 0,3.34761 -3.28099,0 z m 0,-3.34761 0,-3.33095 3.28099,0 0,3.33095 -3.28099,0 z m 0,-3.33095 0,-3.34761 3.28099,0 0,3.34761 -3.28099,0 z m 0,-3.34761 0,-3.34761 3.28099,0 0,3.34761 -3.28099,0 z m 0,19.96907 0,3.29764 -3.33095,0 0,-3.29764 3.33095,0 z m -3.33095,0 0,-3.26434 3.33095,0 0,3.26434 -3.33095,0 z m 0,-3.26434 0,-3.3476 3.33095,0 0,3.3476 -3.33095,0 z m 0,-3.3476 0,-3.33096 3.33095,0 0,3.33096 -3.33095,0 z m 0,-3.33096 0,-3.34761 3.33095,0 0,3.34761 -3.33095,0 z m 0,-3.34761 0,-3.33095 3.33095,0 0,3.33095 -3.33095,0 z m 0,-3.33095 0,-3.34761 3.33095,0 0,3.34761 -3.33095,0 z m 0,-3.34761 0,-3.34761 3.33095,0 0,3.34761 -3.33095,0 z m 0,-3.34761 0,-3.26433 3.33095,0 0,3.26433 -3.33095,0 z m -3.34761,-3.26433 0,-3.34761 3.34761,0 0,3.34761 -3.34761,0 z m 3.34761,26.58101 0,3.29764 -3.34761,0 0,-3.29764 3.34761,0 z m -3.34761,0 0,-3.26434 3.34761,0 0,3.26434 -3.34761,0 z m 0,-3.26434 0,-3.3476 3.34761,0 0,3.3476 -3.34761,0 z m 0,-10.02617 0,-3.33095 3.34761,0 0,3.33095 -3.34761,0 z m 0,-3.33095 0,-3.34761 3.34761,0 0,3.34761 -3.34761,0 z m 0,-6.69522 0,-3.26433 3.34761,0 0,3.26433 -3.34761,0 z m -3.33095,-3.26433 0,-3.34761 3.33095,0 0,3.34761 -3.33095,0 z m 3.33095,26.58101 0,3.29764 -3.33095,0 0,-3.29764 3.33095,0 z m -3.33095,0 0,-3.26434 3.33095,0 0,3.26434 -3.33095,0 z m 0,-16.62146 0,-3.34761 3.33095,0 0,3.34761 -3.33095,0 z m -3.34761,-9.95955 0,-3.34761 3.34761,0 0,3.34761 -3.34761,0 z m 3.34761,26.58101 0,3.29764 -3.34761,0 0,-3.29764 3.34761,0 z m -3.34761,0 0,-3.26434 3.34761,0 0,3.26434 -3.34761,0 z m 0,-6.61194 0,-3.33096 3.34761,0 0,3.33096 -3.34761,0 z m 0,-3.33096 0,-3.34761 3.34761,0 0,3.34761 -3.34761,0 z m 0,-6.67856 0,-3.34761 3.34761,0 0,3.34761 -3.34761,0 z m 0,-3.34761 0,-3.34761 3.34761,0 0,3.34761 -3.34761,0 z m -3.34761,-6.61194 0,-3.34761 3.34761,0 0,3.34761 -3.34761,0 z m 3.34761,26.58101 0,3.29764 -3.34761,0 0,-3.29764 3.34761,0 z m -3.34761,0 0,-3.26434 3.34761,0 0,3.26434 -3.34761,0 z m 0,-6.61194 0,-3.33096 3.34761,0 0,3.33096 -3.34761,0 z m 0,-3.33096 0,-3.34761 3.34761,0 0,3.34761 -3.34761,0 z m 0,-6.67856 0,-3.34761 3.34761,0 0,3.34761 -3.34761,0 z m 0,-3.34761 0,-3.34761 3.34761,0 0,3.34761 -3.34761,0 z m -3.26433,-6.61194 0,-3.34761 3.26433,0 0,3.34761 -3.26433,0 z m 3.26433,26.58101 0,3.29764 -3.26433,0 0,-3.29764 3.26433,0 z m -3.26433,0 0,-3.26434 3.26433,0 0,3.26434 -3.26433,0 z m 0,-6.61194 0,-3.33096 3.26433,0 0,3.33096 -3.26433,0 z m 0,-3.33096 0,-3.34761 3.26433,0 0,3.34761 -3.26433,0 z m 0,-6.67856 0,-3.34761 3.26433,0 0,3.34761 -3.26433,0 z m 0,-3.34761 0,-3.34761 3.26433,0 0,3.34761 -3.26433,0 z m -3.34761,-6.61194 0,-3.34761 3.34761,0 0,3.34761 -3.34761,0 z m 3.34761,26.58101 0,3.29764 -3.34761,0 0,-3.29764 3.34761,0 z m -3.34761,0 0,-3.26434 3.34761,0 0,3.26434 -3.34761,0 z m 0,-9.9429 0,-3.34761 3.34761,0 0,3.34761 -3.34761,0 z m -3.33095,-16.63811 0,-3.34761 3.33095,0 0,3.34761 -3.33095,0 z m 0,26.58101 0,-3.26434 3.33095,0 0,3.26434 -3.33095,0 z m 0,-3.26434 0,-3.3476 3.33095,0 0,3.3476 -3.33095,0 z m 0,-6.67856 0,-3.34761 3.33095,0 0,3.34761 -3.33095,0 z m 0,-3.34761 0,-3.33095 3.33095,0 0,3.33095 -3.33095,0 z m 0,-10.02617 0,-3.26433 3.33095,0 0,3.26433 -3.33095,0 z m -3.34761,20.05234 0,-3.3476 3.34761,0 0,3.3476 -3.34761,0 z m 0,-3.3476 0,-3.33096 3.34761,0 0,3.33096 -3.34761,0 z m 0,-3.33096 0,-3.34761 3.34761,0 0,3.34761 -3.34761,0 z m 0,-3.34761 0,-3.33095 3.34761,0 0,3.33095 -3.34761,0 z m 0,-3.33095 0,-3.34761 3.34761,0 0,3.34761 -3.34761,0 z m 0,-3.34761 0,-3.34761 3.34761,0 0,3.34761 -3.34761,0 z m 0,-3.34761 0,-3.26433 3.34761,0 0,3.26433 -3.34761,0 z"
         style="font-style:normal;font-variant:normal;font-weight:normal;font-stretch:normal;font-size:34.10896301px;line-height:125%;font-family:'Karmatic Arcade';-inkscape-font-specification:'Karmatic Arcade, Normal';text-align:start;writing-mode:lr-tb;text-anchor:start;fill:#2b2b2b;fill-opacity:1"
         id="path4176" />
    </g>
    <text
       xml:space="preserve"
       style="font-style:normal;font-weight:normal;font-size:36px;line-height:125%;font-family:sans-serif;letter-spacing:0px;word-spacing:0px;fill:#2b2b2b;fill-opacity:1;stroke:none;stroke-width:1px;stroke-linecap:butt;stroke-linejoin:miter;stroke-opacity:1"
       x="75.710793"
       y="242.17314"
       id="text3679"
       sodipodi:linespacing="125%"><tspan
         sodipodi:role="line"
         id="tspan3681"
         x="75.710793"
         y="242.17314"
         style="font-style:normal;font-variant:normal;font-weight:normal;font-stretch:normal;font-size:36px;line-height:125%;font-family:'Karmatic Arcade';-inkscape-font-specification:'Karmatic Arcade, Normal';text-align:start;writing-mode:lr-tb;text-anchor:start;fill:#2b2b2b;fill-opacity:1">The</tspan></text>
    <circle
       style="fill:#3a5d25;fill-opacity:1"
       id="path3795"
       cx="446.90991"
       cy="293.61069"
       r="37.502468" />
    <circle
       r="24.029228"
       cy="294.40482"
       cx="446.90991"
       id="circle3836"
       style="fill:#7e7e7e;fill-opacity:1" />
    <circle
       r="37.502468"
       cy="305.34521"
       cx="531.11035"
       id="circle3844"
       style="fill:#a7383e;fill-opacity:1" />
    <circle
       style="fill:#7e7e7e;fill-opacity:1"
       id="circle3846"
       cx="531.11035"
       cy="306.13934"
       r="24.029228" />
    <circle
       style="fill:#2a4f6e;fill-opacity:1"
       id="circle3850"
       cx="519.17346"
       cy="389.48547"
       r="37.502468" />
    <circle
       r="24.029228"
       cy="390.2796"
       cx="519.17346"
       id="circle3852"
       style="fill:#7e7e7e;fill-opacity:1" />
    <circle
       r="37.502468"
       cy="377.75095"
       cx="435.3848"
       id="circle3856"
       style="fill:#2b2b2b;fill-opacity:1" />
    <circle
       style="fill:#7e7e7e;fill-opacity:1"
       id="circle3858"
       cx="435.3848"
       cy="378.54507"
       r="24.029228" />
  </g>
</svg>
